<svg xmlns="http://www.w3.org/2000/svg" viewBox="0 18 900 622"><g stroke="currentColor" stroke-width="2.40" stroke-linejoin="round"><path d="M262,388 L638,388 L1200,650 L-300,650 Z" fill="var(--paper, #fff)" /><path d="M262,388 L638,388 L638,200 L262,200 Z" fill="var(--paper, #fff)" /><path d="M-300,650 L262,388 L262,200 L-300,-100 Z" fill="var(--paper, #fff)" /><path d="M1200,650 L638,388 L638,200 L1200,-100 Z" fill="var(--paper, #fff)" /><line x1="338" y1="388" x2="0" y2="650" stroke-width="0.96"/><line x1="412" y1="388" x2="300" y2="650" stroke-width="0.96"/><line x1="488" y1="388" x2="600" y2="650" stroke-width="0.96"/><line x1="562" y1="388" x2="900" y2="650" stroke-width="0.96"/><path d="M-127,377 L55,353 L55,155 L-127,88 Z" fill="var(--paper, #fff)" /><line x1="-19" y1="362" x2="-19" y2="128" stroke-width="1.60"/><line x1="-127" y1="233" x2="55" y2="254" stroke-width="1.60"/><path d="M124,343 L191,334 L191,205 L124,180 Z" fill="var(--paper, #fff)" /><line x1="162" y1="338" x2="162" y2="194" stroke-width="1.60"/><line x1="124" y1="262" x2="191" y2="270" stroke-width="1.60"/><path d="M216,331 L247,327 L247,226 L216,214 Z" fill="var(--paper, #fff)" /><line x1="233" y1="329" x2="233" y2="220" stroke-width="1.60"/><line x1="216" y1="273" x2="247" y2="276" stroke-width="1.60"/><path d="M312,331 L588,331 L588,231 L312,231 Z" fill="var(--paper, #fff)" /><text x="328" y="259" font-family="DejaVu Sans, sans-serif" font-size="30" font-weight="bold" fill="var(--paper, #fff)" stroke="none">CQ CQ DE N47</text><line x1="494" y1="394" x2="494" y2="344" stroke-width="2.40"/><line x1="567" y1="394" x2="567" y2="344" stroke-width="2.40"/><path d="M493,347 L580,347 L570,343 L490,343 Z" fill="var(--paper, #fff)" /><path d="M493,347 L580,347 L580,372 L493,372 Z" fill="var(--paper, #fff)" /><line x1="497" y1="401" x2="497" y2="372" stroke-width="2.40"/><line x1="576" y1="401" x2="576" y2="372" stroke-width="2.40"/><path d="M525,345 L542,345 L542,342 L525,342 Z" fill="var(--paper, #fff)" /><ellipse cx="528" cy="337" rx="5" ry="2" fill="var(--paper, #fff)"/><line x1="307" y1="409" x2="307" y2="350" stroke-width="2.40"/><line x1="392" y1="409" x2="392" y2="350" stroke-width="2.40"/><path d="M289,355 L391,355 L396,350 L304,350 Z" fill="var(--paper, #fff)" /><path d="M289,355 L391,355 L391,385 L289,385 Z" fill="var(--paper, #fff)" /><line x1="294" y1="418" x2="294" y2="384" stroke-width="2.40"/><line x1="387" y1="418" x2="387" y2="384" stroke-width="2.40"/><path d="M335,352 L355,352 L355,348 L335,348 Z" fill="var(--paper, #fff)" /><ellipse cx="340" cy="343" rx="5" ry="2" fill="var(--paper, #fff)"/><line x1="301" y1="420" x2="301" y2="381" stroke-width="2.00"/><line x1="334" y1="420" x2="334" y2="381" stroke-width="2.00"/><path d="M287,387 L328,387 L337,381 L299,381 Z" fill="var(--paper, #fff)" /><line x1="290" y1="428" x2="290" y2="346" stroke-width="2.00"/><line x1="325" y1="428" x2="325" y2="346" stroke-width="2.00"/><path d="M287,374 L328,374 L328,346 L287,346 Z" fill="var(--paper, #fff)" /><line x1="344" y1="420" x2="344" y2="381" stroke-width="2.00"/><line x1="376" y1="420" x2="376" y2="381" stroke-width="2.00"/><path d="M333,387 L374,387 L379,381 L342,381 Z" fill="var(--paper, #fff)" /><line x1="336" y1="428" x2="336" y2="346" stroke-width="2.00"/><line x1="371" y1="428" x2="371" y2="346" stroke-width="2.00"/><path d="M333,374 L374,374 L374,346 L333,346 Z" fill="var(--paper, #fff)" /><line x1="508" y1="409" x2="508" y2="350" stroke-width="2.40"/><line x1="593" y1="409" x2="593" y2="350" stroke-width="2.40"/><path d="M509,355 L611,355 L596,350 L504,350 Z" fill="var(--paper, #fff)" /><path d="M509,355 L611,355 L611,385 L509,385 Z" fill="var(--paper, #fff)" /><line x1="513" y1="418" x2="513" y2="384" stroke-width="2.40"/><line x1="606" y1="418" x2="606" y2="384" stroke-width="2.40"/><path d="M545,352 L565,352 L565,348 L545,348 Z" fill="var(--paper, #fff)" /><ellipse cx="549" cy="343" rx="5" ry="2" fill="var(--paper, #fff)"/><line x1="524" y1="420" x2="524" y2="381" stroke-width="2.00"/><line x1="556" y1="420" x2="556" y2="381" stroke-width="2.00"/><path d="M526,387 L567,387 L558,381 L521,381 Z" fill="var(--paper, #fff)" /><line x1="529" y1="428" x2="529" y2="346" stroke-width="2.00"/><line x1="564" y1="428" x2="564" y2="346" stroke-width="2.00"/><path d="M526,374 L567,374 L567,346 L526,346 Z" fill="var(--paper, #fff)" /><line x1="566" y1="420" x2="566" y2="381" stroke-width="2.00"/><line x1="599" y1="420" x2="599" y2="381" stroke-width="2.00"/><path d="M572,387 L613,387 L601,381 L563,381 Z" fill="var(--paper, #fff)" /><line x1="575" y1="428" x2="575" y2="346" stroke-width="2.00"/><line x1="610" y1="428" x2="610" y2="346" stroke-width="2.00"/><path d="M572,374 L613,374 L613,346 L572,346 Z" fill="var(--paper, #fff)" /><line x1="267" y1="439" x2="267" y2="364" stroke-width="2.40"/><line x1="376" y1="439" x2="376" y2="364" stroke-width="2.40"/><path d="M239,372 L372,372 L381,364 L264,364 Z" fill="var(--paper, #fff)" /><path d="M239,372 L372,372 L372,411 L239,411 Z" fill="var(--paper, #fff)" /><line x1="245" y1="455" x2="245" y2="411" stroke-width="2.40"/><line x1="367" y1="455" x2="367" y2="411" stroke-width="2.40"/><path d="M302,368 L327,368 L327,362 L302,362 Z" fill="var(--paper, #fff)" /><ellipse cx="307" cy="355" rx="7" ry="3" fill="var(--paper, #fff)"/><line x1="254" y1="457" x2="254" y2="407" stroke-width="2.00"/><line x1="297" y1="457" x2="297" y2="407" stroke-width="2.00"/><path d="M230,418 L285,418 L301,406 L252,406 Z" fill="var(--paper, #fff)" /><line x1="235" y1="473" x2="235" y2="362" stroke-width="2.00"/><line x1="282" y1="473" x2="282" y2="362" stroke-width="2.00"/><path d="M230,399 L285,399 L285,362 L230,362 Z" fill="var(--paper, #fff)" /><line x1="311" y1="457" x2="311" y2="407" stroke-width="2.00"/><line x1="353" y1="457" x2="353" y2="407" stroke-width="2.00"/><path d="M292,418 L347,418 L357,406 L308,406 Z" fill="var(--paper, #fff)" /><line x1="297" y1="473" x2="297" y2="362" stroke-width="2.00"/><line x1="344" y1="473" x2="344" y2="362" stroke-width="2.00"/><path d="M292,399 L347,399 L347,362 L292,362 Z" fill="var(--paper, #fff)" /><line x1="524" y1="439" x2="524" y2="364" stroke-width="2.40"/><line x1="633" y1="439" x2="633" y2="364" stroke-width="2.40"/><path d="M528,372 L661,372 L636,364 L519,364 Z" fill="var(--paper, #fff)" /><path d="M528,372 L661,372 L661,411 L528,411 Z" fill="var(--paper, #fff)" /><line x1="533" y1="455" x2="533" y2="411" stroke-width="2.40"/><line x1="655" y1="455" x2="655" y2="411" stroke-width="2.40"/><path d="M573,368 L598,368 L598,362 L573,362 Z" fill="var(--paper, #fff)" /><ellipse cx="578" cy="355" rx="7" ry="3" fill="var(--paper, #fff)"/><line x1="547" y1="457" x2="547" y2="407" stroke-width="2.00"/><line x1="589" y1="457" x2="589" y2="407" stroke-width="2.00"/><path d="M553,418 L608,418 L592,406 L543,406 Z" fill="var(--paper, #fff)" /><line x1="556" y1="473" x2="556" y2="362" stroke-width="2.00"/><line x1="603" y1="473" x2="603" y2="362" stroke-width="2.00"/><path d="M553,399 L608,399 L608,362 L553,362 Z" fill="var(--paper, #fff)" /><line x1="603" y1="457" x2="603" y2="407" stroke-width="2.00"/><line x1="646" y1="457" x2="646" y2="407" stroke-width="2.00"/><path d="M615,418 L670,418 L648,406 L599,406 Z" fill="var(--paper, #fff)" /><line x1="618" y1="473" x2="618" y2="362" stroke-width="2.00"/><line x1="665" y1="473" x2="665" y2="362" stroke-width="2.00"/><path d="M615,399 L670,399 L670,362 L615,362 Z" fill="var(--paper, #fff)" /><line x1="197" y1="492" x2="197" y2="389" stroke-width="2.40"/><line x1="347" y1="492" x2="347" y2="389" stroke-width="2.40"/><path d="M144,405 L337,405 L355,388 L193,388 Z" fill="var(--paper, #fff)" /><path d="M144,405 L337,405 L337,461 L144,461 Z" fill="var(--paper, #fff)" /><line x1="154" y1="524" x2="154" y2="460" stroke-width="2.40"/><line x1="330" y1="524" x2="330" y2="460" stroke-width="2.40"/><path d="M241,396 L276,396 L276,388 L241,388 Z" fill="var(--paper, #fff)" /><ellipse cx="249" cy="378" rx="10" ry="4" fill="var(--paper, #fff)"/><line x1="165" y1="530" x2="165" y2="456" stroke-width="2.00"/><line x1="227" y1="530" x2="227" y2="456" stroke-width="2.00"/><path d="M113,481 L197,481 L233,455 L162,455 Z" fill="var(--paper, #fff)" /><line x1="122" y1="564" x2="122" y2="394" stroke-width="2.00"/><line x1="193" y1="564" x2="193" y2="394" stroke-width="2.00"/><path d="M113,452 L197,452 L197,395 L113,395 Z" fill="var(--paper, #fff)" /><line x1="247" y1="530" x2="247" y2="456" stroke-width="2.00"/><line x1="309" y1="530" x2="309" y2="456" stroke-width="2.00"/><path d="M209,481 L292,481 L315,455 L243,455 Z" fill="var(--paper, #fff)" /><line x1="216" y1="564" x2="216" y2="394" stroke-width="2.00"/><line x1="288" y1="564" x2="288" y2="394" stroke-width="2.00"/><path d="M209,452 L292,452 L292,395 L209,395 Z" fill="var(--paper, #fff)" /><line x1="553" y1="492" x2="553" y2="389" stroke-width="2.40"/><line x1="703" y1="492" x2="703" y2="389" stroke-width="2.40"/><path d="M563,405 L756,405 L707,388 L545,388 Z" fill="var(--paper, #fff)" /><path d="M563,405 L756,405 L756,461 L563,461 Z" fill="var(--paper, #fff)" /><line x1="570" y1="524" x2="570" y2="460" stroke-width="2.40"/><line x1="746" y1="524" x2="746" y2="460" stroke-width="2.40"/><path d="M624,396 L659,396 L659,388 L624,388 Z" fill="var(--paper, #fff)" /><ellipse cx="631" cy="378" rx="10" ry="4" fill="var(--paper, #fff)"/><line x1="591" y1="530" x2="591" y2="456" stroke-width="2.00"/><line x1="653" y1="530" x2="653" y2="456" stroke-width="2.00"/><path d="M608,481 L691,481 L657,455 L585,455 Z" fill="var(--paper, #fff)" /><line x1="612" y1="564" x2="612" y2="394" stroke-width="2.00"/><line x1="684" y1="564" x2="684" y2="394" stroke-width="2.00"/><path d="M608,452 L691,452 L691,395 L608,395 Z" fill="var(--paper, #fff)" /><line x1="673" y1="530" x2="673" y2="456" stroke-width="2.00"/><line x1="735" y1="530" x2="735" y2="456" stroke-width="2.00"/><path d="M703,481 L787,481 L738,455 L667,455 Z" fill="var(--paper, #fff)" /><line x1="707" y1="564" x2="707" y2="394" stroke-width="2.00"/><line x1="778" y1="564" x2="778" y2="394" stroke-width="2.00"/><path d="M703,452 L787,452 L787,395 L703,395 Z" fill="var(--paper, #fff)" /></g><g stroke="currentColor" fill="none"><path d="M1 62L3 62M899 62L901 62M1 68L15 68M887 68L901 68M1 73L25 73M877 73L901 73M1 79L35 79M867 79L901 79M1 84L47 84M393 84L509 84M855 84L901 84M1 90L55 90M355 90L547 90M845 90L901 90M1 96L67 96M331 96L571 96M835 96L901 96M1 101L79 101M309 101L593 101M823 101L901 101M1 107L87 107M293 107L609 107M815 107L901 107M1 112L99 112M277 112L625 112M803 112L901 112M1 118L109 118M263 118L639 118M793 118L901 118M1 124L119 124M251 124L651 124M783 124L901 124M1 129L131 129M239 129L663 129M771 129L901 129M1 135L139 135M229 135L673 135M761 135L901 135M1 140L151 140M219 140L683 140M751 140L901 140M1 146L161 146M209 146L693 146M741 146L901 146M1 152L171 152M201 152L701 152M729 152L901 152M1 157L183 157M193 157L709 157M719 157L901 157M1 163L901 163M1 168L901 168M1 174L901 174M1 180L901 180M1 185L125 185M141 185L901 185M1 191L125 191M153 191L901 191M1 196L125 196M147 196L901 196M1 202L125 202M143 202L901 202M1 208L125 208M139 208L901 208M1 213L125 213M133 213L901 213M1 219L125 219M129 219L901 219M1 224L901 224M1 230L901 230M1 236L313 236M589 236L901 236M1 241L313 241M333 241L341 241M355 241L361 241M367 241L373 241M391 241L399 241M413 241L419 241M425 241L431 241M449 241L453 241M459 241L467 241M473 241L479 241M505 241L513 241M519 241L523 241M535 241L543 241M559 241L565 241M589 241L901 241M1 247L313 247M331 247L337 247M353 247L359 247M371 247L375 247M389 247L395 247M411 247L417 247M429 247L433 247M449 247L453 247M463 247L469 247M473 247L487 247M505 247L509 247M511 247L515 247M519 247L523 247M531 247L533 247M539 247L543 247M557 247L563 247M589 247L901 247M1 252L313 252M333 252L337 252M355 252L359 252M369 252L375 252M391 252L395 252M413 252L417 252M427 252L433 252M449 252L453 252M463 252L467 252M473 252L479 252M505 252L509 252M515 252L523 252M529 252L545 252M555 252L559 252M589 252L901 252M1 258L313 258M337 258L347 258M359 258L371 258M395 258L405 258M417 258L429 258M449 258L463 258M473 258L489 258M505 258L509 258M517 258L523 258M539 258L543 258M553 258L557 258M589 258L901 258M1 264L313 264M589 264L901 264M1 269L313 269M589 269L901 269M1 275L313 275M589 275L901 275M1 280L313 280M589 280L901 280M1 286L313 286M589 286L901 286M1 292L313 292M589 292L901 292M1 297L313 297M589 297L901 297M1 303L313 303M589 303L901 303M1 308L313 308M333 308L359 308M365 308L375 308M381 308L407 308M413 308L423 308M459 308L485 308M491 308L519 308M525 308L533 308M539 308L567 308M589 308L901 308M1 314L313 314M589 314L901 314M1 320L313 320M589 320L901 320M1 325L313 325M589 325L901 325M1 331L313 331M589 331L901 331M1 336L525 336M535 336L901 336M1 342L337 342M347 342L547 342M555 342L901 342M1 348L289 348M329 348L335 348M375 348L495 348M615 348L901 348M1 353L289 353M395 353L495 353M615 353L901 353M1 359L289 359M393 359L495 359M615 359L901 359M1 364L231 364M393 364L495 364M673 364L901 364M1 370L231 370M393 370L495 370M673 370L901 370M1 376L231 376M393 376L511 376M673 376L901 376M1 381L231 381M393 381L511 381M673 381L901 381M1 387L231 387M377 387L527 387M673 387L901 387M1 392L181 392M375 392L529 392M725 392L901 392M1 398L113 398M375 398L529 398M789 398L901 398M1 404L113 404M375 404L529 404M789 404L901 404M1 409L113 409M375 409L529 409M789 409L901 409M1 415L113 415M353 415L551 415M789 415L901 415M1 420L113 420M339 420L563 420M789 420L901 420M1 426L113 426M339 426L563 426M789 426L901 426M1 432L113 432M339 432L563 432M789 432L901 432M1 437L113 437M339 437L563 437M789 437L901 437M1 443L113 443M339 443L563 443M789 443L901 443M1 448L113 448M339 448L563 448M789 448L901 448M1 454L145 454M339 454L563 454M759 454L901 454M1 460L145 460M339 460L563 460M759 460L901 460M1 465L143 465M221 465L229 465M309 465L595 465M673 465L681 465M761 465L901 465M1 471L133 471M215 471L223 471M303 471L599 471M681 471L689 471M771 471L901 471M1 476L121 476M207 476L215 476M299 476L605 476M689 476L697 476M783 476L901 476M1 482L115 482M199 482L211 482M295 482L609 482M691 482L703 482M787 482L901 482M1 488L901 488M1 493L901 493M1 499L901 499M1 504L901 504M1 510L901 510M1 516L901 516M1 521L901 521M1 527L901 527M1 532L901 532M1 538L901 538M1 544L901 544M1 549L901 549M1 555L901 555M1 560L901 560M1 566L901 566M1 572L901 572M1 577L901 577M1 583L901 583M1 588L901 588M1 594L901 594M1 600L901 600M1 605L901 605M1 611L901 611M1 616L901 616M1 622L901 622M1 628L901 628M1 633L901 633M1 639L901 639M312 236L314 235M321 231L322 230M330 232L332 231M312 249L314 248M342 232L344 231M353 232L355 231M313 262L315 261M346 243L348 242M365 232L367 231M312 268L314 267M376 231L378 230M339 259L341 258M351 252L353 251M372 240L374 239M388 231L389 230M313 281L314 280M375 245L377 244M399 231L401 230M114 402L118 400M360 260L362 259M400 237L402 236M409 232L411 231M116 408L117 407M420 232L422 231M115 415L118 413M312 301L314 300M423 237L425 236M432 232L434 231M114 421L118 419M429 239L431 238M443 231L445 230M115 427L117 426M313 313L314 312M425 248L427 247M432 244L434 243M455 231L457 230M115 434L118 432M232 366L234 365M312 320L314 319M343 302L345 301M458 236L459 235M466 231L468 230M116 440L117 439M183 401L195 394M339 311L341 310M355 302L356 301M478 231L479 230M115 447L119 445M183 408L193 402M196 400L198 399M233 379L235 378M316 331L318 330M349 312L351 311M479 237L481 236M487 232L489 231M184 414L192 409M211 398L213 397M232 386L234 385M249 376L253 374M327 331L329 330M364 310L366 309M450 260L452 259M499 232L501 231M183 421L193 415M197 413L199 412M211 405L214 403M277 367L283 363M339 331L341 330M372 312L374 311M379 308L380 307M387 303L389 302M510 232L512 231M182 427L193 421M196 419L198 418M210 411L214 409M248 389L250 388M276 373L283 369M285 368L286 367M293 363L295 362M304 357L305 356M350 330L352 329M383 311L385 310M399 302L401 301M473 259L475 258M522 231L524 230M145 455L150 452M183 433L192 428M211 417L215 415M260 389L261 388M275 380L282 376M293 370L296 368M322 353L327 350M362 330L364 329M395 311L396 310M407 304L409 303M485 259L487 258M533 231L535 230M150 459L153 457M183 440L193 434M197 432L198 431M210 424L214 422M271 389L273 388M276 386L283 382M285 381L287 380M294 376L295 375M321 360L326 357M333 353L335 352M373 330L375 329M411 308L413 307M536 236L538 235M545 231L546 230M125 480L128 478M182 447L192 441M212 430L213 429M270 396L272 395M295 382L296 381M334 359L336 358M383 331L385 330M416 312L418 311M421 309L423 308M506 260L508 259M554 232L556 231M136 480L140 478M187 451L194 447M197 445L199 444M211 437L214 435M278 398L282 396M337 364L341 362M394 331L396 330M517 260L519 259M557 237L559 236M566 232L568 231M150 479L151 478M210 444L214 442M278 405L288 399M292 397L293 396M338 370L345 366M368 353L373 350M406 331L408 330M544 251L546 250M557 244L558 243M577 232L579 231M161 479L163 478M211 450L215 448M277 412L287 406M293 403L294 402M338 377L345 373M367 360L372 357M374 356L376 355M417 331L419 330M466 303L468 302M540 260L542 259M552 253L554 252M587 233L589 232M171 479L174 477M278 417L289 411M292 409L294 408M301 404L304 402M337 383L346 378M347 377L360 370M373 362L389 353M429 330L431 329M462 311L463 310M477 302L479 301M552 259L554 258M182 479L184 478M277 424L288 418M303 409L316 402M343 386L345 385M348 383L364 374M368 372L371 370M381 364L387 361M440 330L442 329M473 311L475 310M588 245L589 244M194 479L195 478M279 430L287 425M292 422L294 421M303 416L327 402M355 386L365 380M372 376L386 368M452 330L453 329M490 308L492 307M500 302L502 301M278 437L288 431M302 423L326 409M333 405L337 403M345 398L347 397M351 395L364 387M371 383L373 382M377 380L385 375M461 331L463 330M494 312L496 311M510 303L512 302M588 258L590 257M217 479L218 478M277 444L288 438M291 436L295 434M303 429L326 416M336 410L338 409M348 403L366 393M381 384L386 381M473 331L475 330M506 312L508 311M518 305L520 304M587 265L589 264M226 480L230 478M278 450L289 444M292 442L294 441M303 436L327 422M356 405L365 400M484 331L486 330M523 309L524 308M238 479L240 478M286 451L288 450M304 441L326 428M359 409L364 406M496 330L498 329M529 311L531 310M532 309L534 308M537 306L539 305M544 302L546 301M588 277L589 276M249 479L253 477M303 448L325 435M370 409L372 408M507 330L509 329M540 311L542 310M556 302L558 301M261 479L264 477M306 453L327 441M519 330L521 329M552 311L553 310M272 479L274 478M315 454L328 447M496 350L497 349M530 330L532 329M563 311L565 310M587 297L589 296M284 479L285 478M317 460L327 454M495 357L498 355M526 339L528 338M540 331L542 330M328 460L330 459M494 364L498 362M551 331L553 330M588 310L590 309M495 370L497 369M509 362L514 359M563 331L565 330M587 317L589 316M510 367L515 364M528 357L529 356M574 330L576 329M511 373L515 371M586 330L589 328M511 380L514 378M561 351L566 348M568 347L570 346M529 376L536 372M560 358L565 355M530 382L535 379M554 368L556 367M565 362L568 360M579 354L582 352M529 389L536 385M555 374L557 373M531 395L536 392M555 381L557 380M607 351L610 349M612 348L614 347M530 401L535 398M606 357L613 353M529 408L536 404M598 368L605 364M607 363L612 360M600 374L606 370M617 364L619 363M599 381L606 377M608 376L609 375M616 371L620 369M565 407L572 403M600 387L605 384M617 377L619 376M565 414L573 409M580 405L584 403M617 384L618 383M632 375L634 374M566 419L574 414M661 364L664 362M565 426L574 421M608 401L614 398M629 389L631 388M660 371L667 367M564 433L573 428M609 407L613 405M641 389L642 388M661 377L668 373M565 439L574 434M610 413L612 412M650 390L652 389M661 384L668 380M565 446L573 441M610 420L613 418M667 387L669 386M564 453L575 447M609 427L613 425M565 459L574 454M610 433L614 431M610 439L613 437M677 400L688 394M611 445L612 444M676 407L687 401M690 399L692 398M678 413L686 408M695 403L697 402M705 397L707 396M677 420L687 414M691 412L692 411M703 405L708 402M676 427L687 421M690 419L692 418M704 411L707 409M677 433L688 427M703 418L708 415M609 478L611 477M677 439L687 433M690 431L692 430M704 423L708 421M619 479L622 477M678 445L686 440M704 430L707 428M630 479L632 478M680 450L687 446M691 444L693 443M705 436L708 434M772 397L774 396M642 479L643 478M690 451L692 450M704 443L708 441M773 403L784 397M785 396L787 395M653 479L655 478M703 450L709 447M773 410L783 404M663 480L666 478M772 417L782 411M674 480L678 478M773 423L783 417M731 453L733 452M772 429L783 423M741 454L746 451M773 435L782 430M709 479L712 477M747 457L749 456M773 442L783 436M718 480L722 478M772 449L783 443M730 480L732 479M780 451L784 449M741 480L743 479M753 480L756 478M764 479L768 477M776 479L777 478" stroke-width="0.80"/><path d="M341 241L343 241M347 241L349 241M361 241L363 241M365 241L367 241M399 241L401 241M405 241L407 241M419 241L421 241M423 241L425 241M453 241L455 241M457 241L459 241M533 241L535 241M369 247L371 247M427 247L429 247M533 247L535 247M537 247L539 247M331 252L333 252M337 252L339 252M353 252L355 252M389 252L391 252M395 252L397 252M411 252L413 252M461 252L463 252M467 252L469 252M513 252L515 252M527 252L529 252M545 252L547 252M559 252L561 252M347 258L349 258M405 258L407 258M537 258L539 258M337 342L339 342M345 342L347 342M547 342L549 342M393 353L395 353M287 364L289 364M543 364L545 364M615 364L617 364M671 364L673 364M671 370L673 370M671 376L673 376M671 381L673 381M375 387L377 387M671 387L673 387M181 392L185 392M373 392L375 392M719 392L725 392M113 398L115 398M373 398L375 398M113 404L115 404M373 404L375 404M113 409L115 409M373 409L375 409M113 415L115 415M351 415L353 415M113 420L115 420M563 420L565 420M113 426L115 426M563 426L565 426M113 432L115 432M563 432L565 432M113 437L115 437M563 437L565 437M113 443L115 443M563 443L565 443M113 448L115 448M563 448L565 448M563 454L565 454M757 454L759 454M563 460L565 460M757 460L759 460M143 465L145 465M219 465L221 465M229 465L231 465M307 465L309 465M595 465L597 465M671 465L673 465M681 465L683 465M759 465L761 465M133 471L135 471M213 471L215 471M223 471L225 471M599 471L601 471M679 471L681 471M689 471L691 471M769 471L771 471M121 476L123 476M205 476L207 476M215 476L217 476M297 476L299 476M687 476L689 476M697 476L699 476M781 476L783 476M115 482L199 482M211 482L295 482M609 482L691 482M703 482L787 482M345 237L346 236M350 246L352 245M358 248L360 247M374 252L376 251M394 247L396 246M401 243L403 242M330 303L334 301M411 256L413 255M418 259L419 258M453 245L455 244M193 402L196 400M364 303L366 302M470 242L472 241M192 409L198 406M244 379L246 378M478 244L482 242M193 415L197 413M251 382L252 381M374 311L375 310M471 255L472 254M193 421L196 419M283 369L285 368M307 355L311 353M501 243L503 242M192 428L197 425M282 376L286 374M339 343L343 341M193 434L197 432M283 382L285 381M326 357L328 356M501 256L503 255M510 251L512 250M192 441L198 438M276 393L277 392M542 239L544 238M194 447L197 445M535 250L536 249M288 399L292 397M345 366L347 365M565 239L567 238M287 406L293 403M345 373L348 371M372 357L374 356M542 259L544 258M563 247L565 246M289 411L292 409M346 378L347 377M559 255L560 254M288 418L293 415M345 385L348 383M364 374L368 372M387 361L390 359M287 425L292 422M365 380L372 376M386 368L391 365M288 431L293 428M326 409L333 405M364 387L371 383M385 375L390 372M288 438L291 436M326 416L336 410M366 393L372 389M386 381L392 378M289 444L292 442M327 422L337 416M365 400L372 396M288 450L293 447M326 428L337 422M364 406L371 402M325 435L338 428M327 441L337 435M566 303L567 302M328 447L336 442M327 454L337 448M528 338L531 336M330 459L337 455M566 348L568 347M565 355L567 354M575 356L577 355M610 349L612 348M605 364L607 363M606 370L608 369M606 377L608 376M605 384L609 382M625 379L627 378M667 367L671 365M668 373L670 372M668 380L669 379M658 392L660 391M669 386L670 385M687 401L690 399M686 408L691 405M687 414L691 412M687 421L690 419M688 427L691 425M687 433L690 431M686 440L692 437M687 446L691 444M784 397L785 396M783 404L787 402M782 411L788 408M783 417L787 415M783 423L786 421M782 430L787 427M749 456L755 452M783 436L787 434M753 460L757 458M783 443L786 441M784 449L787 447" stroke-width="1.60"/><path d="M343 241L347 241M363 241L365 241M373 241L375 241M401 241L405 241M421 241L423 241M431 241L433 241M447 241L449 241M455 241L457 241M479 241L487 241M503 241L505 241M517 241L519 241M523 241L525 241M551 241L559 241M447 247L449 247M453 247L455 247M487 247L489 247M503 247L505 247M509 247L511 247M517 247L519 247M523 247L525 247M529 247L531 247M359 252L361 252M417 252L419 252M447 252L449 252M453 252L455 252M503 252L505 252M523 252L525 252M335 258L337 258M357 258L359 258M393 258L395 258M415 258L417 258M447 258L449 258M463 258L465 258M503 258L505 258M523 258L525 258M557 258L559 258M313 331L315 331M525 336L527 336M533 336L535 336M339 342L345 342M549 342L555 342M295 348L317 348M341 348L363 348M513 348L527 348M535 348L555 348M579 348L603 348M613 348L615 348M295 353L303 353M305 353L307 353M341 353L363 353M391 353L393 353M535 353L555 353M577 353L579 353M587 353L601 353M295 359L309 359M313 359L315 359M329 359L335 359M341 359L361 359M535 359L555 359M569 359L573 359M583 359L601 359M231 364L233 364M241 364L269 364M289 364L293 364M303 364L331 364M349 364L381 364M521 364L543 364M545 364L555 364M565 364L591 364M609 364L615 364M627 364L653 364M231 370L233 370M241 370L269 370M303 370L331 370M565 370L591 370M625 370L653 370M231 376L233 376M245 376L249 376M259 376L269 376M287 376L293 376M303 376L331 376M563 376L591 376M611 376L615 376M629 376L631 376M641 376L653 376M231 381L233 381M257 381L269 381M287 381L293 381M303 381L331 381M373 381L379 381M523 381L529 381M565 381L591 381M611 381L615 381M639 381L653 381M231 387L233 387M241 387L269 387M287 387L293 387M303 387L331 387M373 387L375 387M527 387L529 387M551 387L553 387M563 387L593 387M611 387L615 387M627 387L653 387M185 392L243 392M277 392L351 392M529 392L531 392M549 392L625 392M661 392L719 392M129 398L171 398M199 398L209 398M225 398L267 398M295 398L345 398M529 398L531 398M557 398L609 398M623 398L665 398M693 398L703 398M719 398L761 398M129 404L171 404M225 404L267 404M529 404L531 404M553 404L563 404M623 404L665 404M719 404L761 404M129 409L171 409M199 409L211 409M225 409L267 409M339 409L355 409M529 409L531 409M547 409L565 409M597 409L609 409M623 409L665 409M719 409L761 409M129 415L171 415M199 415L211 415M225 415L267 415M349 415L351 415M551 415L553 415M599 415L609 415M625 415L665 415M719 415L761 415M129 420L171 420M199 420L211 420M225 420L267 420M599 420L609 420M625 420L665 420M719 420L761 420M129 426L171 426M199 426L211 426M225 426L267 426M597 426L609 426M623 426L665 426M719 426L761 426M129 432L171 432M199 432L211 432M225 432L267 432M597 432L609 432M623 432L665 432M719 432L761 432M129 437L171 437M199 437L211 437M225 437L267 437M597 437L609 437M623 437L665 437M719 437L761 437M129 443L171 443M199 443L211 443M225 443L267 443M599 443L609 443M625 443L665 443M719 443L761 443M129 448L171 448M199 448L211 448M225 448L267 448M599 448L609 448M625 448L665 448M719 448L761 448M145 454L147 454M177 454L277 454M597 454L697 454M145 460L147 460M155 460L313 460M589 460L749 460M145 465L219 465M231 465L307 465M597 465L671 465M683 465L759 465M135 471L213 471M225 471L303 471M601 471L679 471M691 471L769 471M123 476L125 476M203 476L205 476M605 476L607 476M685 476L687 476M779 476L781 476M314 235L316 234M319 232L321 231M313 242L315 241M329 233L330 232M340 233L342 232M314 255L315 254M352 233L353 232M328 253L330 252M349 241L351 240M363 233L365 232M314 267L316 266M340 252L342 251M368 236L369 235M375 232L376 231M313 274L315 273M350 253L351 252M365 244L367 243M386 232L388 231M354 257L356 256M361 253L363 252M366 250L368 249M397 232L399 231M314 287L315 286M386 245L388 244M407 233L409 232M313 294L315 293M372 260L374 259M419 233L420 232M430 233L432 232M313 306L315 305M395 259L397 258M407 252L410 250M423 243L424 242M442 232L443 231M334 301L335 300M418 252L420 251M446 236L450 234M453 232L455 231M314 319L316 318M329 310L331 309M345 301L347 300M433 250L435 249M445 243L447 242M465 232L466 231M313 326L315 325M337 312L339 311M356 301L358 300M429 259L431 258M457 243L459 242M476 232L478 231M318 330L319 329M347 313L349 312M359 306L361 305M363 304L364 303M366 302L368 301M446 256L448 255M481 236L482 235M486 233L487 232M243 380L244 379M329 330L331 329M362 311L364 310M374 304L376 303M449 261L450 260M469 249L471 248M489 238L490 237M497 233L499 232M341 330L342 329M370 313L372 312M389 302L391 301M462 260L465 258M488 245L490 244M502 237L505 235M509 233L510 232M241 393L243 392M245 391L248 389M305 356L307 355M311 353L312 352M352 329L354 328M382 312L383 311M401 301L402 300M484 253L485 252M520 232L522 231M251 394L253 393M256 391L260 389M364 329L365 328M393 312L395 311M412 301L414 300M483 260L485 259M488 257L490 256M516 241L518 240M532 232L533 231M262 394L264 393M268 391L271 389M375 329L377 328M404 312L410 309M422 302L423 301M524 243L526 242M533 238L534 237M538 235L540 234M543 232L545 231M385 330L386 329M414 313L416 312M423 308L425 307M504 261L506 260M509 258L511 257M513 256L515 255M523 250L528 247M553 233L554 232M396 330L398 329M559 236L561 235M564 233L566 232M408 330L409 329M534 257L536 256M576 233L577 232M419 330L421 329M455 309L457 308M468 302L469 301M539 261L540 260M431 329L432 328M460 312L462 311M479 301L481 300M586 239L588 238M442 329L444 328M471 312L473 311M485 304L487 303M491 301L492 300M453 329L455 328M483 312L486 310M488 309L490 308M502 301L504 300M587 252L589 251M463 330L465 329M493 313L494 312M512 302L513 301M586 259L588 258M475 330L476 329M504 313L506 312M523 302L525 301M486 330L488 329M516 313L519 311M533 303L535 302M587 272L588 271M498 329L499 328M527 312L529 311M534 308L536 307M546 301L548 300M509 329L511 328M538 312L540 311M558 301L559 300M587 284L589 283M521 329L522 328M550 312L552 311M586 291L588 290M532 329L534 328M561 312L563 311M567 309L568 308M542 330L543 329M587 304L588 303M527 345L531 343M553 330L555 329M586 311L588 310M539 345L542 343M565 330L566 329M550 344L552 343M576 329L578 328M586 323L588 322M573 357L575 356M624 380L625 379M632 381L633 380M626 391L629 389M632 394L634 393M637 391L641 389M642 395L643 394M647 392L650 390M653 395L655 394" stroke-width="2.40"/><path d="M313 236L315 236M313 241L315 241M331 241L333 241M349 241L351 241M353 241L355 241M389 241L391 241M407 241L409 241M411 241L413 241M467 241L469 241M487 241L489 241M549 241L551 241M565 241L567 241M313 247L315 247M337 247L339 247M359 247L361 247M375 247L377 247M395 247L397 247M417 247L419 247M433 247L435 247M461 247L463 247M515 247L517 247M563 247L565 247M313 252L315 252M367 252L369 252M425 252L427 252M509 252L511 252M553 252L555 252M313 258L315 258M349 258L351 258M371 258L373 258M407 258L409 258M429 258L431 258M509 258L511 258M515 258L517 258M551 258L553 258M313 264L315 264M369 264L373 264M427 264L431 264M313 269L315 269M313 275L315 275M313 280L315 280M313 286L315 286M313 292L315 292M313 297L315 297M313 303L315 303M333 303L359 303M365 303L375 303M381 303L407 303M413 303L423 303M459 303L485 303M491 303L519 303M525 303L533 303M539 303L567 303M313 308L315 308M331 308L333 308M359 308L361 308M379 308L381 308M407 308L409 308M457 308L459 308M485 308L487 308M523 308L525 308M533 308L535 308M313 314L315 314M313 320L315 320M313 325L315 325M315 331L589 331M527 336L531 336M289 348L295 348M317 348L329 348M335 348L341 348M363 348L375 348M495 348L513 348M527 348L535 348M555 348L579 348M603 348L613 348M289 353L295 353M303 353L305 353M307 353L311 353M313 353L341 353M363 353L391 353M495 353L535 353M555 353L577 353M579 353L581 353M585 353L587 353M601 353L615 353M289 359L295 359M309 359L313 359M315 359L329 359M335 359L341 359M361 359L393 359M495 359L535 359M555 359L569 359M573 359L583 359M601 359L615 359M233 364L241 364M269 364L287 364M293 364L303 364M331 364L349 364M381 364L393 364M495 364L521 364M555 364L565 364M591 364L609 364M617 364L627 364M653 364L671 364M233 370L241 370M269 370L303 370M331 370L393 370M495 370L565 370M591 370L625 370M653 370L671 370M233 376L245 376M249 376L253 376M257 376L259 376M269 376L287 376M293 376L303 376M331 376L393 376M511 376L563 376M591 376L611 376M615 376L629 376M631 376L635 376M639 376L641 376M653 376L671 376M233 381L247 381M253 381L257 381M269 381L287 381M293 381L303 381M331 381L373 381M379 381L393 381M511 381L523 381M529 381L565 381M591 381L611 381M615 381L629 381M637 381L639 381M653 381L671 381M233 387L241 387M269 387L287 387M293 387L303 387M331 387L373 387M529 387L551 387M553 387L563 387M593 387L611 387M615 387L627 387M653 387L671 387M351 392L373 392M531 392L549 392M115 398L129 398M171 398L199 398M209 398L225 398M267 398L295 398M345 398L373 398M531 398L557 398M609 398L623 398M665 398L693 398M703 398L719 398M761 398L789 398M115 404L129 404M171 404L225 404M267 404L373 404M531 404L553 404M563 404L623 404M665 404L719 404M761 404L789 404M115 409L129 409M171 409L199 409M211 409L225 409M267 409L339 409M355 409L373 409M531 409L547 409M565 409L597 409M609 409L623 409M665 409L719 409M761 409L789 409M115 415L129 415M171 415L199 415M211 415L225 415M267 415L335 415M337 415L349 415M553 415L599 415M609 415L625 415M665 415L719 415M761 415L789 415M115 420L129 420M171 420L199 420M211 420L225 420M267 420L335 420M337 420L339 420M565 420L599 420M609 420L625 420M665 420L719 420M761 420L789 420M115 426L129 426M171 426L199 426M211 426L225 426M267 426L339 426M565 426L597 426M609 426L623 426M665 426L719 426M761 426L789 426M115 432L129 432M171 432L199 432M211 432L225 432M267 432L339 432M565 432L597 432M609 432L623 432M665 432L719 432M761 432L789 432M115 437L129 437M171 437L199 437M211 437L225 437M267 437L339 437M565 437L597 437M609 437L623 437M665 437L719 437M761 437L789 437M115 443L129 443M171 443L199 443M211 443L225 443M267 443L335 443M337 443L339 443M565 443L599 443M609 443L625 443M665 443L719 443M761 443L789 443M115 448L129 448M171 448L199 448M211 448L225 448M267 448L335 448M337 448L339 448M565 448L599 448M609 448L625 448M665 448L719 448M761 448L789 448M147 454L177 454M277 454L339 454M565 454L597 454M697 454L757 454M147 460L155 460M313 460L339 460M565 460L589 460M749 460L757 460M125 476L203 476M217 476L297 476M607 476L685 476M699 476L779 476M316 234L319 232M315 241L329 233M314 248L340 233M315 254L329 246M346 236L352 233M315 261L328 253M337 248L346 243M351 240L363 233M316 266L333 256M342 251L350 246M369 235L375 232M315 273L339 259M360 247L365 244M374 239L386 232M314 280L354 257M363 252L366 250M377 244L397 232M315 286L360 260M376 251L386 245M402 236L407 233M315 293L367 263M374 259L387 251M396 246L401 243M408 239L419 233M314 300L390 256M397 252L409 245M425 236L430 233M315 305L395 259M417 246L423 243M431 238L442 232M314 312L330 303M335 300L411 256M420 251L425 248M434 243L446 236M450 234L453 232M316 318L329 310M347 300L418 259M435 249L445 243M459 235L465 232M315 325L337 312M358 300L424 262M431 258L447 249M455 244L457 243M466 238L476 232M319 329L347 313M361 305L363 304M368 301L446 256M455 251L461 247M468 243L470 242M482 235L486 233M331 329L362 311M376 303L449 261M490 237L497 233M252 381L259 377M342 329L370 313M375 310L379 308M391 301L462 260M465 258L471 255M490 244L502 237M505 235L509 233M243 392L245 391M354 328L382 312M402 300L473 259M485 252L501 243M511 237L520 232M253 393L256 391M365 328L393 312M409 303L412 301M414 300L483 260M490 256L502 249M514 242L516 241M525 236L532 232M264 393L268 391M377 328L404 312M410 309L411 308M423 301L501 256M526 242L533 238M540 234L543 232M272 395L276 393M386 329L414 313M425 307L504 261M511 257L513 256M544 238L553 233M398 329L517 260M524 256L526 255M543 245L549 242M561 235L564 233M409 329L534 257M546 250L557 244M567 238L576 233M421 329L455 309M469 301L539 261M544 258L552 253M565 246L587 233M432 328L460 312M481 300L552 259M560 254L586 239M444 328L471 312M487 303L491 301M492 300L588 245M455 328L483 312M486 310L488 309M504 300L587 252M465 329L493 313M513 301L586 259M476 329L504 313M520 304L523 302M525 301L587 265M488 329L516 313M519 311L523 309M535 302L587 272M499 328L527 312M536 307L537 306M548 300L588 277M511 328L538 312M559 300L587 284M522 328L550 312M567 302L586 291M534 328L561 312M568 308L587 297M543 329L587 304M555 329L586 311M566 329L587 317M552 343L554 342M578 328L586 323M633 380L640 376M634 393L637 391M643 394L647 392M655 394L658 392" stroke-width="3.20"/><path d="M315 236L589 236M315 241L331 241M351 241L353 241M375 241L389 241M409 241L411 241M433 241L447 241M469 241L473 241M489 241L503 241M513 241L517 241M525 241L533 241M543 241L549 241M567 241L589 241M315 247L331 247M339 247L353 247M361 247L369 247M377 247L389 247M397 247L411 247M419 247L427 247M435 247L447 247M455 247L461 247M469 247L473 247M489 247L503 247M525 247L529 247M535 247L537 247M543 247L557 247M565 247L589 247M315 252L331 252M339 252L353 252M361 252L367 252M375 252L389 252M397 252L411 252M419 252L425 252M433 252L447 252M455 252L461 252M469 252L473 252M479 252L503 252M511 252L513 252M525 252L527 252M547 252L553 252M561 252L589 252M315 258L335 258M351 258L357 258M373 258L393 258M409 258L415 258M431 258L447 258M465 258L473 258M489 258L503 258M511 258L515 258M525 258L537 258M543 258L551 258M559 258L589 258M315 264L369 264M373 264L427 264M431 264L589 264M315 269L589 269M315 275L589 275M315 280L589 280M315 286L589 286M315 292L589 292M315 297L589 297M315 303L333 303M359 303L365 303M375 303L381 303M407 303L413 303M423 303L459 303M485 303L491 303M519 303L525 303M533 303L539 303M567 303L589 303M315 308L331 308M361 308L365 308M375 308L379 308M409 308L413 308M423 308L457 308M487 308L491 308M519 308L523 308M535 308L539 308M567 308L589 308M315 314L589 314M315 320L589 320M315 325L589 325M531 336L533 336M311 353L313 353M581 353L585 353M253 376L257 376M635 376L639 376M247 381L253 381M629 381L637 381M243 392L277 392M625 392L661 392M335 415L337 415M335 420L337 420M335 443L337 443M335 448L337 448" stroke-width="4.00"/></g></svg>