<svg xmlns="http://www.w3.org/2000/svg" viewBox="87 115 622 460"><g stroke="currentColor" stroke-width="2.40" stroke-linejoin="round"><g transform="rotate(-8 400 360)"><rect x="170" y="200" width="470" height="300" fill="var(--paper, #fff)" transform="rotate(12 400 350)"/><rect x="150" y="190" width="500" height="310" fill="var(--paper, #fff)"/><rect x="166" y="206" width="468" height="278" fill="var(--paper, #fff)" stroke-width="1.60"/><text x="190" y="300" font-family="DejaVu Serif, serif" font-weight="bold" font-size="84" fill="var(--paper, #fff)" stroke-width="0.96">DL1ABC</text><text x="192" y="345" font-family="DejaVu Sans, sans-serif" font-size="26" fill="var(--paper, #fff)" stroke-width="0.96">CONFIRMING OUR QSO</text><rect x="186" y="370" width="428" height="88" fill="var(--paper, #fff)" stroke-width="1.60"/><line x1="276" y1="370" x2="276" y2="458" stroke-width="1.60"/><line x1="366" y1="370" x2="366" y2="458" stroke-width="1.60"/><line x1="456" y1="370" x2="456" y2="458" stroke-width="1.60"/><line x1="536" y1="370" x2="536" y2="458" stroke-width="1.60"/><line x1="186" y1="400" x2="614" y2="400" stroke-width="1.60"/><text x="196" y="392" font-family="DejaVu Sans, sans-serif" font-size="18" fill="var(--paper, #fff)" stroke-width="0.96">DATE UTC MHZ RST 2WAY</text><text x="196" y="440" font-family="DejaVu Sans Mono, monospace" font-size="24" fill="var(--paper, #fff)" stroke-width="0.96">04.10 1830 7.025 599 CW</text><circle cx="590" cy="440" r="0" fill="var(--paper, #fff)"/><text x="560" y="350" font-family="DejaVu Sans, sans-serif" font-weight="bold" font-size="30" fill="var(--paper, #fff)" stroke-width="0.96">TNX</text></g></g><g stroke="currentColor" fill="none"><path d="M607 160L625 160M349 165L449 165M565 165L625 165M321 171L477 171M533 171L627 171M301 177L627 177M285 182L627 182M271 188L629 188M259 193L629 193M249 199L631 199M239 205L631 205M231 210L631 210M223 216L633 216M215 221L521 221M563 221L649 221M209 227L515 227M531 227L553 227M563 227L649 227M203 233L433 233M491 233L511 233M527 233L557 233M565 233L647 233M197 238L391 238M403 238L441 238M457 238L475 238M493 238L509 238M527 238L647 238M193 244L389 244M405 244L441 244M459 244L477 244M493 244L507 244M525 244L647 244M187 249L327 249M345 249L389 249M409 249L443 249M459 249L475 249M491 249L507 249M527 249L647 249M183 255L279 255M283 255L321 255M345 255L387 255M411 255L443 255M489 255L507 255M527 255L647 255M179 261L251 261M277 261L317 261M323 261L331 261M347 261L385 261M391 261L397 261M415 261L443 261M463 261L475 261M499 261L509 261M529 261L559 261M569 261L645 261M175 266L191 266M235 266L261 266M277 266L331 266M347 266L383 266M391 266L399 266M419 266L445 266M463 266L481 266M501 266L511 266M531 266L557 266M567 266L645 266M171 272L179 272M205 272L221 272M241 272L261 272M277 272L333 272M349 272L383 272M389 272L403 272M421 272L445 272M463 272L483 272M501 272L515 272M535 272L553 272M565 272L645 272M169 277L189 277M205 277L227 277M245 277L261 277M279 277L333 277M349 277L381 277M425 277L445 277M463 277L481 277M501 277L523 277M557 277L645 277M165 283L189 283M205 283L229 283M247 283L263 283M279 283L333 283M351 283L379 283M399 283L409 283M429 283L447 283M465 283L475 283M495 283L645 283M163 289L189 289M207 289L231 289M249 289L263 289M281 289L335 289M351 289L377 289M385 289L411 289M433 289L435 289M437 289L441 289M483 289L643 289M161 294L191 294M207 294L231 294M249 294L265 294M281 294L335 294M351 294L377 294M383 294L409 294M439 294L643 294M159 300L191 300M209 300L231 300M249 300L265 300M281 300L305 300M311 300L335 300M353 300L359 300M363 300L371 300M391 300L601 300M609 300L613 300M621 300L645 300M157 305L193 305M209 305L231 305M249 305L265 305M283 305L305 305M313 305L325 305M363 305L555 305M575 305L577 305M587 305L591 305M599 305L605 305M619 305L645 305M155 311L193 311M209 311L229 311M245 311L267 311M313 311L555 311M569 311L577 311M599 311L607 311M619 311L647 311M153 317L193 317M211 317L225 317M241 317L259 317M285 317L457 317M463 317L471 317M485 317L563 317M571 317L579 317M585 317L587 317M601 317L605 317M613 317L615 317M625 317L647 317M153 322L193 322M231 322L433 322M449 322L451 322M457 322L469 322M473 322L483 322M487 322L563 322M571 322L579 322M587 322L593 322M601 322L647 322M153 328L187 328M205 328L387 328M391 328L399 328M403 328L405 328M411 328L415 328M421 328L431 328M437 328L447 328M451 328L455 328M467 328L469 328M473 328L483 328M487 328L565 328M567 328L649 328M151 333L343 333M355 333L367 333M373 333L379 333M385 333L387 333M391 333L399 333M403 333L407 333M419 333L433 333M437 333L445 333M451 333L455 333M457 333L461 333M467 333L473 333M485 333L649 333M151 339L313 339M315 339L319 339M325 339L331 339M335 339L339 339M343 339L367 339M371 339L381 339M393 339L399 339M405 339L407 339M411 339L417 339M423 339L435 339M449 339L651 339M151 345L265 345M267 345L273 345M285 345L291 345M297 345L303 345M309 345L313 345M317 345L321 345M329 345L333 345M337 345L339 345M343 345L349 345M357 345L369 345M373 345L379 345M385 345L391 345M403 345L651 345M151 350L217 350M221 350L231 350M235 350L243 350M245 350L249 350M253 350L265 350M269 350L273 350M277 350L281 350M285 350L291 350M295 350L297 350M303 350L305 350M309 350L313 350M317 350L321 350M325 350L329 350M337 350L341 350M357 350L651 350M151 356L195 356M207 356L211 356M215 356L223 356M227 356L231 356M239 356L243 356M247 356L251 356M261 356L265 356M269 356L273 356M277 356L283 356M287 356L291 356M295 356L299 356M301 356L307 356M311 356L315 356M319 356L321 356M325 356L653 356M151 361L191 361M197 361L209 361M215 361L225 361M229 361L231 361M235 361L239 361M247 361L251 361M255 361L267 361M271 361L273 361M277 361L653 361M153 367L193 367M197 367L211 367M217 367L223 367M227 367L233 367M237 367L243 367M247 367L655 367M153 373L197 373M207 373L655 373M155 378L401 378M403 378L407 378M411 378L413 378M419 378L421 378M431 378L655 378M157 384L365 384M377 384L383 384M385 384L387 384M397 384L399 384M409 384L411 384M415 384L417 384M421 384L425 384M429 384L657 384M159 389L325 389M335 389L343 389M347 389L349 389M353 389L355 389M361 389L369 389M373 389L385 389M389 389L395 389M401 389L403 389M409 389L411 389M415 389L421 389M423 389L657 389M161 395L295 395M299 395L305 395M309 395L311 395M315 395L319 395M323 395L329 395M333 395L343 395M353 395L361 395M365 395L369 395M373 395L383 395M391 395L659 395M163 401L255 401M257 401L263 401M265 401L271 401M273 401L277 401M281 401L297 401M309 401L311 401M315 401L319 401M323 401L325 401M337 401L345 401M347 401L659 401M165 406L203 406M213 406L219 406M223 406L229 406M233 406L237 406M247 406L255 406M259 406L263 406M267 406L271 406M275 406L279 406M289 406L297 406M299 406L513 406M525 406L533 406M537 406L659 406M167 412L203 412M207 412L211 412M215 412L217 412M221 412L223 412M227 412L231 412M233 412L239 412M243 412L257 412M265 412L483 412M491 412L509 412M515 412L523 412M537 412L661 412M163 417L203 417M219 417L451 417M461 417L465 417M471 417L475 417M479 417L481 417M485 417L489 417M493 417L509 417M515 417L525 417M537 417L661 417M165 423L167 423M169 423L399 423M403 423L409 423M421 423L423 423M429 423L453 423M465 423L467 423M481 423L483 423M495 423L511 423M523 423L525 423M531 423L533 423M537 423L663 423M159 429L365 429M377 429L395 429M399 429L403 429M407 429L417 429M421 429L425 429M429 429L431 429M437 429L461 429M465 429L469 429M479 429L483 429M491 429L663 429M159 434L313 434M317 434L323 434M333 434L339 434M343 434L345 434M349 434L373 434M377 434L395 434M401 434L405 434M409 434L413 434M417 434L425 434M437 434L663 434M161 440L295 440M303 440L309 440M313 440L317 440M321 440L329 440M335 440L339 440M351 440L371 440M375 440L385 440M391 440L397 440M407 440L411 440M419 440L665 440M161 445L253 445M261 445L267 445M271 445L275 445M279 445L301 445M305 445L311 445M315 445L317 445M323 445L333 445M337 445L339 445M351 445L371 445M373 445L665 445M161 451L211 451M219 451L227 451M233 451L257 451M261 451L267 451M279 451L301 451M305 451L311 451M323 451L325 451M335 451L665 451M161 457L209 457M221 457L225 457M229 457L231 457M235 457L257 457M263 457L267 457M279 457L667 457M161 462L209 462M215 462L217 462M221 462L231 462M235 462L243 462M247 462L667 462M161 468L215 468M217 468L643 468M161 473L631 473M159 479L631 479M165 485L631 485M167 490L631 490M167 496L629 496M169 501L629 501M169 507L629 507M169 513L499 513M567 513L629 513M171 518L279 518M317 518L481 518M171 524L241 524M345 524L453 524M173 529L199 529M180 270L182 269M195 268L197 267M189 277L191 276M205 268L207 267M210 265L212 264M203 276L204 275M218 267L223 264M204 282L205 281M225 270L231 266M205 288L207 287M227 275L232 272M206 294L208 293M230 280L235 277M207 300L209 299M231 286L240 281M208 306L210 305M236 290L246 284M245 290L247 289M266 285L267 284M267 291L277 285M266 298L268 297M276 292L278 291M279 297L281 296M280 303L282 302M195 358L196 357M281 308L283 307M392 244L401 239M194 365L196 364M291 309L293 308M336 283L346 277M397 248L404 244M306 307L308 306M335 290L337 289M348 283L349 282M396 255L406 249M434 233L436 232M310 311L312 310M387 267L388 266M399 260L409 254M440 236L442 235M449 231L451 230M221 369L223 368M234 362L235 361M332 305L334 304M383 276L384 275M386 274L388 273M402 265L414 258M462 230L464 229M245 362L247 361M415 264L417 263M354 306L355 305M395 282L397 281M405 276L407 275M418 269L419 268M444 254L445 253M275 357L277 356M408 280L410 279M445 259L446 258M411 285L413 284M540 217L542 216M508 242L510 241M543 222L545 221M224 413L225 412M331 351L333 350M335 349L336 348M447 284L449 283M461 276L463 275M492 258L494 257M355 344L356 343M509 255L511 254M370 342L371 341M389 331L390 330M467 286L468 285M383 340L385 339M400 330L402 329M409 325L411 324M516 270L517 269M210 453L212 452M433 324L435 323M437 322L440 320M530 268L532 267M218 455L220 454M447 323L448 322M525 278L526 277M219 461L221 460M234 459L236 458M345 395L347 394M457 336L459 335M389 382L390 381M270 457L272 456M386 390L388 389M402 381L404 380M399 389L401 388M414 387L418 385M313 452L315 451M320 448L322 447M563 308L564 307M328 450L330 449M333 447L335 446M565 313L567 312M348 444L350 443M594 302L596 301M588 312L590 311M595 308L597 307M607 301L609 300M584 321L586 320M619 301L621 300M425 426L427 425M414 439L418 437M433 428L435 427M434 433L436 432M461 424L463 423M462 430L464 429M474 430L476 429M536 414L538 413M535 420L537 419" stroke-width="0.80"/><path d="M521 221L523 221M561 221L563 221M515 227L517 227M433 233L435 233M489 233L491 233M563 233L565 233M391 238L393 238M401 238L403 238M525 238L527 238M389 244L391 244M327 249L329 249M525 249L527 249M279 255L283 255M321 255L323 255M485 255L489 255M507 255L509 255M251 261L253 261M275 261L277 261M317 261L319 261M321 261L323 261M443 261L445 261M461 261L463 261M475 261L477 261M497 261L499 261M191 266L193 266M233 266L235 266M331 266L333 266M383 266L385 266M389 266L391 266M399 266L401 266M461 266L463 266M511 266L513 266M557 266L559 266M203 272L205 272M239 272L241 272M347 272L349 272M553 272L555 272M563 272L565 272M261 277L263 277M277 277L279 277M387 277L393 277M445 277L447 277M499 277L501 277M349 283L351 283M379 283L381 283M395 283L399 283M427 283L429 283M463 283L465 283M475 283L477 283M189 289L191 289M279 289L281 289M377 289L379 289M411 289L413 289M431 289L433 289M435 289L437 289M479 289L483 289M437 294L439 294M207 300L209 300M335 300L337 300M359 300L363 300M607 300L609 300M613 300L615 300M247 305L249 305M305 305L307 305M359 305L363 305M555 305L557 305M577 305L579 305M585 305L587 305M591 305L593 305M597 305L599 305M617 305L619 305M555 311L563 311M577 311L579 311M589 311L593 311M607 311L609 311M193 317L195 317M281 317L285 317M457 317L463 317M569 317L571 317M587 317L589 317M599 317L601 317M611 317L613 317M615 317L617 317M193 322L195 322M229 322L231 322M433 322L435 322M439 322L443 322M451 322L453 322M455 322L457 322M585 322L587 322M599 322L601 322M201 328L205 328M387 328L391 328M405 328L407 328M409 328L411 328M419 328L421 328M431 328L433 328M435 328L437 328M565 328L567 328M343 333L345 333M353 333L355 333M367 333L369 333M371 333L373 333M379 333L381 333M387 333L389 333M399 333L401 333M445 333L447 333M455 333L457 333M461 333L463 333M483 333L485 333M313 339L315 339M319 339L321 339M331 339L333 339M339 339L341 339M381 339L383 339M385 339L389 339M391 339L393 339M399 339L401 339M403 339L405 339M407 339L409 339M417 339L419 339M435 339L437 339M447 339L449 339M265 345L267 345M283 345L285 345M293 345L297 345M303 345L309 345M315 345L317 345M323 345L327 345M335 345L337 345M349 345L353 345M379 345L381 345M401 345L403 345M217 350L221 350M249 350L251 350M267 350L269 350M275 350L277 350M293 350L295 350M299 350L301 350M305 350L307 350M313 350L315 350M329 350L331 350M341 350L343 350M355 350L357 350M245 356L247 356M259 356L261 356M265 356L267 356M299 356L301 356M309 356L311 356M317 356L319 356M321 356L323 356M191 361L193 361M195 361L197 361M209 361L211 361M213 361L215 361M231 361L233 361M239 361L241 361M269 361L271 361M273 361L275 361M215 367L217 367M235 367L237 367M205 373L207 373M401 378L403 378M409 378L411 378M417 378L419 378M425 378L427 378M429 378L431 378M365 384L367 384M375 384L377 384M383 384L385 384M387 384L389 384M391 384L395 384M405 384L407 384M411 384L413 384M427 384L429 384M325 389L327 389M345 389L347 389M351 389L353 389M357 389L361 389M385 389L387 389M395 389L397 389M403 389L405 389M413 389L415 389M421 389L423 389M295 395L297 395M307 395L309 395M313 395L315 395M321 395L323 395M331 395L333 395M351 395L353 395M361 395L363 395M369 395L371 395M383 395L385 395M387 395L391 395M255 401L257 401M263 401L265 401M271 401L273 401M277 401L281 401M299 401L301 401M305 401L307 401M311 401L313 401M319 401L321 401M345 401L347 401M203 406L205 406M211 406L213 406M229 406L231 406M237 406L239 406M241 406L247 406M257 406L259 406M265 406L267 406M283 406L287 406M297 406L299 406M513 406L515 406M519 406L523 406M205 412L207 412M211 412L213 412M219 412L221 412M225 412L227 412M241 412L243 412M509 412L511 412M513 412L515 412M527 412L529 412M203 417L205 417M207 417L209 417M213 417L217 417M451 417L453 417M457 417L461 417M465 417L467 417M469 417L471 417M509 417L511 417M513 417L515 417M399 423L403 423M409 423L411 423M419 423L421 423M423 423L425 423M427 423L429 423M463 423L465 423M479 423L481 423M483 423L485 423M489 423L491 423M493 423L495 423M511 423L513 423M525 423L527 423M529 423L531 423M533 423L537 423M365 429L367 429M403 429L405 429M419 429L421 429M425 429L429 429M431 429L433 429M435 429L437 429M469 429L473 429M313 434L317 434M323 434L325 434M341 434L343 434M345 434L347 434M375 434L377 434M395 434L397 434M399 434L401 434M407 434L409 434M425 434L431 434M435 434L437 434M295 440L297 440M309 440L313 440M317 440L321 440M329 440L331 440M333 440L335 440M341 440L343 440M345 440L347 440M385 440L387 440M389 440L391 440M397 440L399 440M411 440L419 440M259 445L261 445M269 445L271 445M277 445L279 445M303 445L305 445M313 445L315 445M317 445L319 445M321 445L323 445M343 445L347 445M371 445L373 445M227 451L229 451M269 451L271 451M273 451L275 451M315 451L317 451M321 451L323 451M333 451L335 451M213 457L215 457M217 457L219 457M227 457L229 457M257 457L259 457M261 457L263 457M267 457L269 457M277 457L279 457M209 462L211 462M213 462L215 462M217 462L219 462M231 462L233 462M243 462L245 462M215 468L217 468M188 272L195 268M191 276L203 269M207 267L210 265M191 283L203 276M192 289L204 282M200 291L205 288M204 295L206 294M193 308L195 307M232 292L236 290M233 297L245 290M243 298L248 295M208 325L209 324M221 324L223 323M243 311L245 310M268 297L276 292M277 298L279 297M266 317L267 316M281 315L282 314M307 300L308 299M197 370L199 369M296 313L297 312M337 289L348 283M213 367L215 366M336 296L338 295M349 289L350 288M220 370L221 369M223 368L227 366M350 295L351 294M384 275L386 274M339 308L340 307M380 284L382 283M387 280L389 279M404 270L415 264M468 233L470 232M475 229L477 228M253 364L255 363M402 278L404 277M475 236L476 235M268 361L270 360M420 273L422 272M478 240L479 239M385 300L387 299M389 298L390 297M423 278L425 277M446 265L447 264M463 255L465 254M447 271L449 270M490 246L492 245M484 256L486 255M526 232L528 231M428 295L430 294M372 346L374 345M390 336L391 335M407 326L409 325M391 342L393 341M401 336L403 335M408 332L410 331M417 327L419 326M528 263L529 262M399 344L402 342M409 338L411 337M416 334L418 333M435 323L437 322M440 320L442 319M533 273L535 272M212 465L214 464M448 329L449 328M442 339L444 338M447 336L449 335M461 328L464 326M470 323L471 322M398 390L399 389M415 380L417 379M413 388L414 387M425 381L426 380M343 447L345 446M565 319L566 318M566 325L568 324M581 316L583 315M608 307L610 306M388 441L390 440M594 322L596 321M608 314L610 313M401 440L403 439M609 320L611 319M619 314L621 313M429 436L434 433M468 420L470 419M475 416L477 415M459 432L462 430M476 422L478 421M490 414L492 413M476 429L477 428M487 429L489 428M491 427L492 426M511 415L513 414M523 408L525 407M525 414L526 413M530 411L531 410M535 408L537 407M520 423L522 422M533 416L536 414" stroke-width="1.60"/><path d="M529 227L531 227M435 233L439 233M511 233L513 233M393 238L399 238M475 238L477 238M403 244L405 244M441 244L443 244M457 244L459 244M507 244L509 244M329 249L345 249M407 249L409 249M489 249L491 249M507 249L509 249M323 255L345 255M387 255L389 255M459 255L465 255M483 255L485 255M269 261L275 261M319 261L321 261M331 261L347 261M385 261L387 261M413 261L415 261M509 261L511 261M527 261L529 261M559 261L561 261M193 266L197 266M231 266L233 266M261 266L277 266M333 266L347 266M417 266L419 266M481 266L483 266M179 272L181 272M221 272L223 272M261 272L277 272M333 272L335 272M445 272L447 272M461 272L463 272M515 272L517 272M533 272L535 272M243 277L245 277M333 277L335 277M393 277L397 277M481 277L483 277M523 277L525 277M555 277L557 277M245 283L247 283M277 283L279 283M333 283L335 283M393 283L395 283M205 289L207 289M247 289L249 289M263 289L265 289M441 289L443 289M477 289L479 289M433 294L437 294M191 300L193 300M231 300L233 300M351 300L353 300M389 300L391 300M601 300L603 300M265 305L267 305M281 305L283 305M311 305L313 305M325 305L327 305M357 305L359 305M557 305L561 305M571 305L575 305M579 305L585 305M605 305L607 305M229 311L231 311M567 311L569 311M579 311L587 311M209 317L211 317M225 317L227 317M239 317L241 317M279 317L281 317M471 317L473 317M483 317L485 317M623 317L625 317M437 322L439 322M447 322L449 322M563 322L565 322M569 322L571 322M579 322L581 322M593 322L599 322M187 328L189 328M199 328L201 328M401 328L403 328M415 328L417 328M449 328L451 328M455 328L457 328M465 328L467 328M345 333L353 333M383 333L385 333M417 333L419 333M449 333L451 333M473 333L475 333M481 333L483 333M321 339L325 339M333 339L335 339M341 339L343 339M367 339L371 339M421 339L423 339M273 345L283 345M291 345L293 345M313 345L315 345M321 345L323 345M327 345L329 345M339 345L343 345M355 345L357 345M383 345L385 345M231 350L235 350M243 350L245 350M251 350L253 350M265 350L267 350M273 350L275 350M281 350L285 350M291 350L293 350M297 350L299 350M301 350L303 350M321 350L323 350M195 356L197 356M199 356L207 356M211 356L215 356M223 356L227 356M231 356L239 356M243 356L245 356M255 356L259 356M273 356L277 356M285 356L287 356M291 356L293 356M323 356L325 356M227 361L229 361M243 361L245 361M251 361L253 361M195 367L197 367M211 367L213 367M223 367L225 367M243 367L247 367M197 373L199 373M203 373L205 373M407 378L409 378M413 378L415 378M421 378L425 378M367 384L369 384M373 384L375 384M399 384L405 384M417 384L421 384M327 389L335 389M343 389L345 389M349 389L351 389M369 389L373 389M297 395L299 395M305 395L307 395M311 395L313 395M319 395L321 395M329 395L331 395M343 395L349 395M385 395L387 395M297 401L299 401M301 401L305 401M307 401L309 401M313 401L315 401M325 401L327 401M329 401L333 401M335 401L337 401M205 406L211 406M221 406L223 406M231 406L233 406M239 406L241 406M255 406L257 406M263 406L265 406M271 406L275 406M281 406L283 406M287 406L289 406M515 406L519 406M533 406L535 406M203 412L205 412M217 412L219 412M257 412L259 412M263 412L265 412M483 412L485 412M489 412L491 412M525 412L527 412M531 412L535 412M209 417L211 417M217 417L219 417M455 417L457 417M477 417L479 417M483 417L485 417M489 417L491 417M529 417L533 417M467 423L469 423M471 423L475 423M487 423L489 423M517 423L519 423M367 429L377 429M395 429L399 429M473 429L475 429M477 429L479 429M483 429L485 429M489 429L491 429M325 434L333 434M339 434L341 434M347 434L349 434M373 434L375 434M415 434L417 434M297 440L303 440M331 440L333 440M339 440L341 440M343 440L345 440M347 440L351 440M371 440L373 440M405 440L407 440M253 445L257 445M267 445L269 445M275 445L277 445M301 445L303 445M311 445L313 445M335 445L337 445M339 445L341 445M349 445L351 445M229 451L231 451M257 451L261 451M271 451L273 451M275 451L279 451M301 451L305 451M317 451L319 451M325 451L327 451M331 451L333 451M209 457L213 457M215 457L217 457M225 457L227 457M233 457L235 457M271 457L275 457M245 462L247 462M193 295L200 291M194 301L204 295M195 307L207 300M194 314L196 313M203 309L208 306M195 319L197 318M207 312L209 311M193 327L195 326M233 304L243 298M215 321L216 320M230 312L248 302M242 312L243 311M267 304L277 298M268 310L280 303M282 314L284 313M289 310L291 309M308 299L310 298M297 312L299 311M304 308L306 307M308 306L311 304M338 295L349 289M442 235L449 231M331 306L332 305M338 302L350 295M443 241L462 230M340 307L342 306M351 301L352 300M382 283L387 280M444 247L456 240M470 232L475 229M355 305L357 304M360 302L362 301M379 291L385 288M397 281L402 278M407 275L418 269M445 253L457 246M476 235L482 232M483 231L485 230M381 296L382 295M410 279L420 273M446 258L458 251M479 239L484 236M413 284L415 283M418 281L423 278M447 264L463 255M479 246L482 244M491 239L492 238M426 283L428 282M450 269L461 263M471 257L473 256M480 252L483 250M488 247L490 246M413 297L415 296M429 288L431 287M448 277L450 276M460 270L462 269M477 260L479 259M524 233L526 232M435 291L437 290M482 264L484 263M523 240L525 239M558 220L560 219M443 293L445 292M497 262L498 261M561 225L563 224M458 291L460 290M484 276L486 275M562 231L564 230M473 288L475 287M513 265L514 264M520 274L522 273M436 336L437 335M455 325L456 324M533 280L534 279M540 276L541 275M232 460L234 459M444 338L447 336M480 317L482 316M459 335L460 334M471 328L472 327M485 320L486 319M475 332L477 331M486 326L487 325M566 318L568 317M606 302L607 301M582 322L584 321M591 317L598 313M612 305L615 303M617 302L619 301M491 420L493 419M489 428L491 427M512 421L514 420M519 424L520 423M527 419L529 418" stroke-width="2.40"/><path d="M523 221L525 221M539 221L545 221M553 227L555 227M561 227L563 227M439 233L445 233M525 233L527 233M399 238L401 238M441 238L443 238M491 238L493 238M509 238L511 238M391 244L403 244M477 244L479 244M491 244L493 244M389 249L407 249M443 249L445 249M457 249L459 249M475 249L477 249M389 255L411 255M443 255L445 255M465 255L469 255M481 255L483 255M525 255L527 255M253 261L269 261M387 261L391 261M397 261L413 261M459 261L461 261M477 261L479 261M567 261L569 261M197 266L231 266M385 266L389 266M401 266L409 266M445 266L447 266M499 266L501 266M529 266L531 266M565 266L567 266M185 272L189 272M201 272L203 272M223 272L239 272M335 272L347 272M383 272L389 272M403 272L405 272M419 272L421 272M189 277L191 277M199 277L205 277M227 277L243 277M263 277L277 277M335 277L349 277M381 277L383 277M385 277L387 277M397 277L403 277M423 277L425 277M461 277L463 277M189 283L191 283M201 283L205 283M229 283L245 283M263 283L277 283M335 283L349 283M387 283L393 283M409 283L411 283M447 283L449 283M477 283L479 283M493 283L495 283M231 289L247 289M265 289L279 289M335 289L337 289M349 289L351 289M383 289L385 289M443 289L447 289M475 289L477 289M191 294L193 294M205 294L207 294M231 294L233 294M243 294L249 294M265 294L281 294M335 294L337 294M377 294L379 294M381 294L383 294M409 294L411 294M431 294L433 294M247 300L249 300M265 300L267 300M279 300L281 300M305 300L307 300M371 300L373 300M603 300L607 300M619 300L621 300M207 305L209 305M231 305L233 305M353 305L357 305M561 305L571 305M593 305L597 305M193 311L195 311M283 311L287 311M311 311L313 311M563 311L567 311M587 311L589 311M593 311L599 311M617 311L619 311M259 317L261 317M275 317L279 317M473 317L479 317M563 317L569 317M579 317L585 317M589 317L591 317M605 317L607 317M227 322L229 322M435 322L437 322M443 322L445 322M471 322L473 322M483 322L485 322M195 328L199 328M399 328L401 328M407 328L409 328M417 328L419 328M457 328L461 328M469 328L471 328M483 328L485 328M369 333L371 333M381 333L383 333M389 333L391 333M401 333L403 333M407 333L409 333M411 333L415 333M433 333L437 333M463 333L465 333M383 339L385 339M389 339L391 339M437 339L439 339M333 345L335 345M353 345L355 345M369 345L373 345M381 345L383 345M391 345L393 345M399 345L401 345M307 350L309 350M315 350L317 350M323 350L325 350M331 350L337 350M343 350L355 350M197 356L199 356M251 356L255 356M267 356L269 356M283 356L285 356M293 356L295 356M307 356L309 356M315 356L317 356M193 361L195 361M211 361L213 361M225 361L227 361M233 361L235 361M241 361L243 361M245 361L247 361M253 361L255 361M267 361L269 361M275 361L277 361M193 367L195 367M225 367L227 367M233 367L235 367M199 373L203 373M427 378L429 378M369 384L373 384M389 384L391 384M395 384L397 384M407 384L409 384M413 384L415 384M425 384L427 384M355 389L357 389M387 389L389 389M399 389L401 389M407 389L409 389M411 389L413 389M349 395L351 395M363 395L365 395M371 395L373 395M321 401L323 401M327 401L329 401M333 401L335 401M219 406L221 406M279 406L281 406M523 406L525 406M535 406L537 406M213 412L215 412M223 412L225 412M231 412L233 412M239 412L241 412M259 412L263 412M485 412L489 412M523 412L525 412M535 412L537 412M205 417L207 417M211 417L213 417M453 417L455 417M467 417L469 417M475 417L477 417M481 417L483 417M491 417L493 417M525 417L529 417M535 417L537 417M411 423L419 423M425 423L427 423M453 423L463 423M469 423L471 423M475 423L477 423M485 423L487 423M515 423L517 423M519 423L523 423M527 423L529 423M405 429L407 429M417 429L419 429M433 429L435 429M461 429L465 429M485 429L489 429M397 434L399 434M405 434L407 434M413 434L415 434M431 434L435 434M373 440L375 440M387 440L389 440M399 440L405 440M257 445L259 445M319 445L321 445M333 445L335 445M341 445L343 445M347 445L349 445M211 451L219 451M231 451L233 451M267 451L269 451M311 451L315 451M319 451L321 451M327 451L331 451M219 457L221 457M231 457L233 457M259 457L261 457M269 457L271 457M275 457L277 457M211 462L213 462M219 462L221 462M233 462L235 462M196 313L203 309M197 318L207 312M195 326L210 317M209 324L215 321M223 323L242 312M267 316L281 308M284 313L289 310M299 311L304 308M327 308L331 306M342 306L351 301M357 304L360 302M482 232L483 231M374 300L381 296M484 236L490 233M387 299L389 298M415 283L418 281M482 244L491 239M416 289L426 283M449 270L450 269M473 256L480 252M483 250L488 247M513 233L540 217M415 296L429 288M450 276L460 270M479 259L484 256M510 241L524 233M545 221L547 220M548 219L550 218M430 294L435 291M449 283L461 276M484 263L492 258M510 248L523 240M551 224L553 223M445 292L462 282M485 269L497 262M511 254L524 246M556 228L557 227M460 290L461 289M463 288L467 286M486 275L500 267M512 260L526 252M558 233L560 232M475 287L476 286M497 274L501 272M525 258L527 257M544 280L546 279M565 268L567 267M465 331L467 330M568 324L569 323M610 306L612 305M615 303L617 302M596 321L599 319M610 313L616 309" stroke-width="3.20"/><path d="M525 221L539 221M545 221L551 221M559 221L561 221M517 227L529 227M555 227L557 227M445 233L489 233M513 233L525 233M557 233L559 233M561 233L563 233M443 238L457 238M477 238L491 238M511 238L525 238M443 244L457 244M479 244L491 244M509 244L525 244M445 249L457 249M477 249L489 249M509 249L525 249M445 255L459 255M469 255L481 255M509 255L525 255M445 261L459 261M479 261L497 261M511 261L527 261M561 261L563 261M409 266L417 266M447 266L461 266M483 266L499 266M513 266L515 266M181 272L185 272M189 272L201 272M405 272L419 272M447 272L461 272M483 272L501 272M517 272L519 272M531 272L533 272M555 272L557 272M561 272L563 272M191 277L199 277M383 277L385 277M403 277L423 277M447 277L461 277M483 277L491 277M497 277L499 277M525 277L527 277M553 277L555 277M191 283L201 283M381 283L387 283M411 283L427 283M449 283L463 283M479 283L481 283M491 283L493 283M191 289L205 289M337 289L349 289M379 289L383 289M413 289L431 289M447 289L475 289M193 294L205 294M233 294L243 294M337 294L351 294M379 294L381 294M411 294L431 294M193 300L207 300M233 300L247 300M267 300L279 300M307 300L311 300M337 300L351 300M373 300L389 300M615 300L619 300M193 305L207 305M233 305L247 305M267 305L281 305M307 305L311 305M327 305L353 305M607 305L617 305M195 311L209 311M231 311L245 311M267 311L283 311M287 311L311 311M609 311L617 311M195 317L209 317M227 317L239 317M261 317L275 317M479 317L483 317M591 317L599 317M607 317L611 317M617 317L619 317M621 317L623 317M195 322L227 322M445 322L447 322M453 322L455 322M469 322L471 322M485 322L487 322M565 322L569 322M581 322L585 322M189 328L195 328M433 328L435 328M447 328L449 328M461 328L465 328M471 328L473 328M485 328L487 328M409 333L411 333M415 333L417 333M447 333L449 333M465 333L467 333M475 333L481 333M401 339L403 339M409 339L411 339M419 339L421 339M439 339L447 339M393 345L399 345M213 367L215 367M415 378L417 378M397 389L399 389M405 389L407 389M511 412L513 412M529 412L531 412M511 417L513 417M533 417L535 417M477 423L479 423M491 423L493 423M513 423L515 423M475 429L477 429M547 220L548 219M553 223L558 220M557 227L561 225M461 289L463 288M560 232L562 231M476 286L497 274M514 264L525 258M517 269L528 263M522 273L530 268M526 277L533 273M534 279L540 276M560 264L567 260M546 279L548 278M551 276L556 273M563 269L565 268M617 315L619 314" stroke-width="4.00"/><path d="M551 221L559 221M557 227L561 227M559 233L561 233M563 261L567 261M515 266L529 266M559 266L565 266M519 272L531 272M557 272L561 272M491 277L497 277M527 277L553 277M481 283L491 283M619 317L621 317M548 278L551 276M556 273L563 269" stroke-width="4.80"/></g></svg>