<svg xmlns="http://www.w3.org/2000/svg" width="760" height="960" viewBox="0 0 760 960">
<defs>
<linearGradient id="silo" x1="0" y1="0" x2="1" y2="0"><stop offset="0" stop-color="#9a9a9a"/><stop offset="0.3" stop-color="#f4f4f4"/><stop offset="0.55" stop-color="#e4e4e4"/><stop offset="1" stop-color="#6a6a6a"/></linearGradient>
<linearGradient id="dach" x1="0" y1="0" x2="1" y2="0"><stop offset="0" stop-color="#888"/><stop offset="0.4" stop-color="#eee"/><stop offset="1" stop-color="#666"/></linearGradient>
<linearGradient id="stahl" x1="0" y1="0" x2="1" y2="0"><stop offset="0" stop-color="#333"/><stop offset="0.5" stop-color="#999"/><stop offset="1" stop-color="#333"/></linearGradient>
<linearGradient id="rohr" x1="0" y1="0" x2="0" y2="1"><stop offset="0" stop-color="#ddd"/><stop offset="1" stop-color="#333"/></linearGradient>
<linearGradient id="rotor" x1="0" y1="0" x2="1" y2="0"><stop offset="0" stop-color="#111"/><stop offset="0.4" stop-color="#999"/><stop offset="1" stop-color="#111"/></linearGradient>
<linearGradient id="glas" x1="0" y1="0" x2="1" y2="1"><stop offset="0" stop-color="#222"/><stop offset="0.5" stop-color="#555"/><stop offset="1" stop-color="#111"/></linearGradient>
<linearGradient id="tuer" x1="0" y1="0" x2="0" y2="1"><stop offset="0" stop-color="#111"/><stop offset="1" stop-color="#333"/></linearGradient>
<linearGradient id="boden" x1="0" y1="0" x2="0" y2="1"><stop offset="0" stop-color="#999"/><stop offset="1" stop-color="#ddd"/></linearGradient>
</defs>
<rect width="760" height="960" fill="#fff"/>
<g stroke="#000" stroke-width="3" stroke-linejoin="round" transform="translate(0,50)">
<rect x="450" y="640" width="70" height="12" fill="url(#stahl)"/><line x1="515" y1="652" x2="515" y2="860"/><line x1="470" y1="652" x2="470" y2="860"/><path d="M515,646 L640,860 L662,860 L537,646 Z" fill="url(#stahl)"/><path d="M520,600 L520,646 M640,814 L640,860 M520,600 L645,814" fill="none"/><line x1="532" y1="675" x2="554" y2="675" stroke-width="2"/><line x1="545" y1="698" x2="567" y2="698" stroke-width="2"/><line x1="559" y1="721" x2="581" y2="721" stroke-width="2"/><line x1="572" y1="744" x2="594" y2="744" stroke-width="2"/><line x1="586" y1="767" x2="608" y2="767" stroke-width="2"/><line x1="599" y1="790" x2="621" y2="790" stroke-width="2"/><line x1="613" y1="813" x2="635" y2="813" stroke-width="2"/><line x1="626" y1="836" x2="648" y2="836" stroke-width="2"/><line x1="462" y1="345" x2="462" y2="640"/><line x1="486" y1="345" x2="486" y2="640"/><line x1="462" y1="360" x2="486" y2="360" stroke-width="2"/><line x1="462" y1="380" x2="486" y2="380" stroke-width="2"/><line x1="462" y1="400" x2="486" y2="400" stroke-width="2"/><line x1="462" y1="420" x2="486" y2="420" stroke-width="2"/><line x1="462" y1="440" x2="486" y2="440" stroke-width="2"/><line x1="462" y1="460" x2="486" y2="460" stroke-width="2"/><line x1="462" y1="480" x2="486" y2="480" stroke-width="2"/><line x1="462" y1="500" x2="486" y2="500" stroke-width="2"/><line x1="462" y1="520" x2="486" y2="520" stroke-width="2"/><line x1="462" y1="540" x2="486" y2="540" stroke-width="2"/><line x1="462" y1="560" x2="486" y2="560" stroke-width="2"/><line x1="462" y1="580" x2="486" y2="580" stroke-width="2"/><line x1="462" y1="600" x2="486" y2="600" stroke-width="2"/><line x1="462" y1="620" x2="486" y2="620" stroke-width="2"/><path d="M456,380 Q474,390 494,380" fill="none" stroke-width="2"/><path d="M456,425 Q474,435 494,425" fill="none" stroke-width="2"/><path d="M456,470 Q474,480 494,470" fill="none" stroke-width="2"/><path d="M456,515 Q474,525 494,515" fill="none" stroke-width="2"/><path d="M456,560 Q474,570 494,560" fill="none" stroke-width="2"/><line x1="494" y1="380" x2="494" y2="600" stroke-width="2"/><path d="M210,330 L210,860 Q330,874 450,860 L450,330 Z" fill="url(#silo)"/><path d="M210,470 Q330,482 450,470" fill="none" stroke-width="1.5"/><path d="M210,610 Q330,622 450,610" fill="none" stroke-width="1.5"/><path d="M210,750 Q330,762 450,750" fill="none" stroke-width="1.5"/><ellipse cx="330" cy="330" rx="122" ry="16" fill="url(#dach)"/><path d="M204,296 Q330,310 456,296" fill="none" stroke-width="2.5"/><line x1="206" y1="300" x2="206" y2="326" stroke-width="2"/><line x1="228" y1="300" x2="228" y2="326" stroke-width="2"/><line x1="250" y1="300" x2="250" y2="326" stroke-width="2"/><line x1="272" y1="300" x2="272" y2="326" stroke-width="2"/><line x1="294" y1="300" x2="294" y2="326" stroke-width="2"/><line x1="316" y1="300" x2="316" y2="326" stroke-width="2"/><line x1="338" y1="300" x2="338" y2="326" stroke-width="2"/><line x1="360" y1="300" x2="360" y2="326" stroke-width="2"/><line x1="382" y1="300" x2="382" y2="326" stroke-width="2"/><line x1="404" y1="300" x2="404" y2="326" stroke-width="2"/><line x1="426" y1="300" x2="426" y2="326" stroke-width="2"/><line x1="448" y1="300" x2="448" y2="326" stroke-width="2"/><rect x="320" y="400" width="44" height="44" fill="url(#glas)"/><rect x="320" y="540" width="44" height="44" fill="url(#glas)"/><path d="M286,860 L286,770 L372,770 L372,862 Z" fill="url(#tuer)"/><rect x="278" y="760" width="102" height="10" fill="url(#stahl)"/><g stroke-width="2.5"><line x1="320" y1="110" x2="345" y2="146"/><line x1="340" y1="110" x2="315" y2="146"/><line x1="315" y1="146" x2="345" y2="146"/><line x1="315" y1="146" x2="350" y2="182"/><line x1="345" y1="146" x2="310" y2="182"/><line x1="310" y1="182" x2="350" y2="182"/><line x1="310" y1="182" x2="355" y2="218"/><line x1="350" y1="182" x2="305" y2="218"/><line x1="305" y1="218" x2="355" y2="218"/><line x1="305" y1="218" x2="360" y2="254"/><line x1="355" y1="218" x2="300" y2="254"/><line x1="300" y1="254" x2="360" y2="254"/><line x1="300" y1="254" x2="365" y2="290"/><line x1="360" y1="254" x2="295" y2="290"/><line x1="295" y1="290" x2="365" y2="290"/><line x1="295" y1="290" x2="370" y2="326"/><line x1="365" y1="290" x2="290" y2="326"/><line x1="290" y1="326" x2="370" y2="326"/></g><path d="M320,110 L290,326 L298,326 L324,110 Z" fill="url(#stahl)"/><path d="M340,110 L370,326 L362,326 L336,110 Z" fill="url(#stahl)"/><rect x="318" y="96" width="24" height="18" rx="3" fill="url(#rotor)"/><rect x="326" y="20" width="8" height="78" fill="url(#rohr)"/><!--b--><path d="M145,30 L379,194 L377,198 L143,32 Z" fill="url(#rohr)" stroke-width="1.8"/><path d="M221,10 L439,164 L437,167 L219,13 Z" fill="url(#rohr)" stroke-width="1.8"/><path d="M298,-8 L498,132 L496,135 L296,-5 Z" fill="url(#rohr)" stroke-width="1.8"/><path d="M262,108 L398,58 L398,66 L262,116 Z" fill="url(#rohr)"/><path d="M300,30 L372,18 L372,24 L300,36 Z" fill="url(#rohr)"/><line x1="304" y1="13" x2="304" y2="53" stroke-width="2"/><line x1="322" y1="13" x2="322" y2="47" stroke-width="2"/><line x1="340" y1="12" x2="340" y2="42" stroke-width="2"/><line x1="358" y1="11" x2="358" y2="37" stroke-width="2"/><line x1="430" y1="300" x2="430" y2="240" stroke-width="2"/><line x1="412" y1="252" x2="448" y2="246" stroke-width="2"/><path d="M120,862 L700,862 L700,880 L120,880 Z" fill="url(#boden)"/>
</g></svg>