<svg xmlns="http://www.w3.org/2000/svg" width="800" height="640" viewBox="0 0 800 640"><defs>
<linearGradient id="metall" x1="0" y1="0" x2="0" y2="1"><stop offset="0" stop-color="#f0f0f0"/><stop offset="0.4" stop-color="#aaa"/><stop offset="1" stop-color="#2a2a2a"/></linearGradient>
<linearGradient id="metallv" x1="0" y1="0" x2="1" y2="0"><stop offset="0" stop-color="#2a2a2a"/><stop offset="0.35" stop-color="#e6e6e6"/><stop offset="0.65" stop-color="#999"/><stop offset="1" stop-color="#222"/></linearGradient>
<radialGradient id="kugel" cx="35%" cy="30%" r="75%"><stop offset="0" stop-color="#fafafa"/><stop offset="0.5" stop-color="#bbb"/><stop offset="1" stop-color="#333"/></radialGradient>
<radialGradient id="dunkel" cx="35%" cy="30%" r="80%"><stop offset="0" stop-color="#999"/><stop offset="0.45" stop-color="#333"/><stop offset="1" stop-color="#000"/></radialGradient>
<linearGradient id="schwarz" x1="0" y1="0" x2="1" y2="0"><stop offset="0" stop-color="#050505"/><stop offset="0.35" stop-color="#666"/><stop offset="0.6" stop-color="#222"/><stop offset="1" stop-color="#000"/></linearGradient>
<linearGradient id="sockel" x1="0" y1="0" x2="0" y2="1"><stop offset="0" stop-color="#888"/><stop offset="0.3" stop-color="#333"/><stop offset="1" stop-color="#0a0a0a"/></linearGradient>
<radialGradient id="zifferblatt" cx="50%" cy="45%" r="60%"><stop offset="0" stop-color="#fff"/><stop offset="0.8" stop-color="#eee"/><stop offset="1" stop-color="#aaa"/></radialGradient>
<linearGradient id="land" x1="0" y1="0" x2="1" y2="1"><stop offset="0" stop-color="#777"/><stop offset="1" stop-color="#1a1a1a"/></linearGradient>
<linearGradient id="holz" x1="0" y1="0" x2="1" y2="0"><stop offset="0" stop-color="#555"/><stop offset="0.4" stop-color="#999"/><stop offset="1" stop-color="#444"/></linearGradient>
<linearGradient id="holzh" x1="0" y1="0" x2="0" y2="1"><stop offset="0" stop-color="#aaa"/><stop offset="1" stop-color="#555"/></linearGradient>
<linearGradient id="papier" x1="0" y1="0" x2="1" y2="1"><stop offset="0" stop-color="#fff"/><stop offset="1" stop-color="#ccc"/></linearGradient>
<linearGradient id="glasv" x1="0" y1="0" x2="1" y2="0"><stop offset="0" stop-color="#999"/><stop offset="0.25" stop-color="#fff"/><stop offset="0.7" stop-color="#ddd"/><stop offset="1" stop-color="#888"/></linearGradient>
<linearGradient id="wolke" x1="0" y1="0" x2="0" y2="1"><stop offset="0" stop-color="#888"/><stop offset="1" stop-color="#222"/></linearGradient>
<linearGradient id="sand" x1="0" y1="0" x2="1" y2="0"><stop offset="0" stop-color="#555"/><stop offset="0.4" stop-color="#999"/><stop offset="1" stop-color="#444"/></linearGradient>
</defs><rect width="800" height="640" fill="#fff"/><g stroke="#000" stroke-width="3" stroke-linejoin="round"><path d="M90,520 Q250,470 400,540 Q550,470 710,520 L710,540 Q550,490 400,560 Q250,490 90,540 Z" fill="url(#sockel)"/><path d="M100,230 Q250,180 400,250 L400,540 Q250,470 100,520 Z" fill="url(#papier)"/><path d="M700,230 Q550,180 400,250 L400,540 Q550,470 700,520 Z" fill="url(#papier)"/><path d="M130,262 Q250,222 380,278" fill="none" stroke-width="1.6"/><path d="M420,278 Q550,222 670,262" fill="none" stroke-width="1.6"/><path d="M130,288 Q250,248 380,304" fill="none" stroke-width="1.6"/><path d="M420,304 Q550,248 670,288" fill="none" stroke-width="1.6"/><path d="M130,314 Q250,274 380,330" fill="none" stroke-width="1.6"/><path d="M420,330 Q550,274 670,314" fill="none" stroke-width="1.6"/><path d="M130,340 Q250,300 380,356" fill="none" stroke-width="1.6"/><path d="M420,356 Q550,300 670,340" fill="none" stroke-width="1.6"/><path d="M130,366 Q250,326 380,382" fill="none" stroke-width="1.6"/><path d="M420,382 Q550,326 670,366" fill="none" stroke-width="1.6"/><path d="M130,392 Q250,352 380,408" fill="none" stroke-width="1.6"/><path d="M420,408 Q550,352 670,392" fill="none" stroke-width="1.6"/><path d="M130,418 Q250,378 380,434" fill="none" stroke-width="1.6"/><path d="M420,434 Q550,378 670,418" fill="none" stroke-width="1.6"/><path d="M130,444 Q250,404 380,460" fill="none" stroke-width="1.6"/><path d="M420,460 Q550,404 670,444" fill="none" stroke-width="1.6"/><path d="M130,470 Q250,430 380,486" fill="none" stroke-width="1.6"/><path d="M420,486 Q550,430 670,470" fill="none" stroke-width="1.6"/><text x="150" y="232" font-family="DejaVu Serif, serif" font-weight="bold" font-size="40" fill="url(#dunkel)" transform="rotate(-12 150 232)">QRL QRM</text><text x="470" y="222" font-family="DejaVu Serif, serif" font-weight="bold" font-size="40" fill="url(#dunkel)" transform="rotate(12 470 222)">QSB QTH</text><path d="M392,250 L408,250 L410,600 L400,585 L390,600 Z" fill="url(#dunkel)"/></g></svg>