<svg xmlns="http://www.w3.org/2000/svg" width="800" height="800" viewBox="0 0 800 800"><defs>
<linearGradient id="metall" x1="0" y1="0" x2="0" y2="1"><stop offset="0" stop-color="#f0f0f0"/><stop offset="0.4" stop-color="#aaa"/><stop offset="1" stop-color="#2a2a2a"/></linearGradient>
<linearGradient id="metallv" x1="0" y1="0" x2="1" y2="0"><stop offset="0" stop-color="#2a2a2a"/><stop offset="0.35" stop-color="#e6e6e6"/><stop offset="0.65" stop-color="#999"/><stop offset="1" stop-color="#222"/></linearGradient>
<radialGradient id="kugel" cx="35%" cy="30%" r="75%"><stop offset="0" stop-color="#fafafa"/><stop offset="0.5" stop-color="#bbb"/><stop offset="1" stop-color="#333"/></radialGradient>
<radialGradient id="dunkel" cx="35%" cy="30%" r="80%"><stop offset="0" stop-color="#999"/><stop offset="0.45" stop-color="#333"/><stop offset="1" stop-color="#000"/></radialGradient>
<linearGradient id="schwarz" x1="0" y1="0" x2="1" y2="0"><stop offset="0" stop-color="#050505"/><stop offset="0.35" stop-color="#666"/><stop offset="0.6" stop-color="#222"/><stop offset="1" stop-color="#000"/></linearGradient>
<linearGradient id="sockel" x1="0" y1="0" x2="0" y2="1"><stop offset="0" stop-color="#888"/><stop offset="0.3" stop-color="#333"/><stop offset="1" stop-color="#0a0a0a"/></linearGradient>
<radialGradient id="zifferblatt" cx="50%" cy="45%" r="60%"><stop offset="0" stop-color="#fff"/><stop offset="0.8" stop-color="#eee"/><stop offset="1" stop-color="#aaa"/></radialGradient>
<linearGradient id="land" x1="0" y1="0" x2="1" y2="1"><stop offset="0" stop-color="#777"/><stop offset="1" stop-color="#1a1a1a"/></linearGradient>
<linearGradient id="holz" x1="0" y1="0" x2="1" y2="0"><stop offset="0" stop-color="#555"/><stop offset="0.4" stop-color="#999"/><stop offset="1" stop-color="#444"/></linearGradient>
<linearGradient id="holzh" x1="0" y1="0" x2="0" y2="1"><stop offset="0" stop-color="#aaa"/><stop offset="1" stop-color="#555"/></linearGradient>
<linearGradient id="papier" x1="0" y1="0" x2="1" y2="1"><stop offset="0" stop-color="#fff"/><stop offset="1" stop-color="#ccc"/></linearGradient>
<linearGradient id="glasv" x1="0" y1="0" x2="1" y2="0"><stop offset="0" stop-color="#999"/><stop offset="0.25" stop-color="#fff"/><stop offset="0.7" stop-color="#ddd"/><stop offset="1" stop-color="#888"/></linearGradient>
<linearGradient id="wolke" x1="0" y1="0" x2="0" y2="1"><stop offset="0" stop-color="#888"/><stop offset="1" stop-color="#222"/></linearGradient>
<linearGradient id="sand" x1="0" y1="0" x2="1" y2="0"><stop offset="0" stop-color="#555"/><stop offset="0.4" stop-color="#999"/><stop offset="1" stop-color="#444"/></linearGradient>
</defs><rect width="800" height="800" fill="#fff"/><g stroke="#000" stroke-width="3" stroke-linejoin="round"><g fill="url(#wolke)"><circle cx="220" cy="150" r="70"/><circle cx="320" cy="110" r="90"/><circle cx="440" cy="130" r="80"/><circle cx="540" cy="160" r="64"/><circle cx="380" cy="180" r="80"/><circle cx="270" cy="190" r="60"/></g><path d="M180,200 Q380,250 600,200 L600,210 Q380,260 180,210 Z" fill="url(#wolke)" stroke="none"/><path d="M400,220 L350,360 L400,360 L330,520 L470,320 L415,320 L470,220 Z" fill="url(#papier)" stroke-width="4"/><rect x="586" y="300" width="12" height="380" fill="url(#metall)"/><rect x="580" y="660" width="24" height="120" fill="url(#metallv)"/><line x1="592" y1="672" x2="482" y2="740" stroke-width="5"/><line x1="592" y1="672" x2="532" y2="740" stroke-width="5"/><line x1="592" y1="672" x2="652" y2="740" stroke-width="5"/><line x1="592" y1="672" x2="702" y2="740" stroke-width="5"/><rect x="570" y="650" width="44" height="26" rx="4" fill="url(#sockel)"/><path d="M500,520 q12,-14 24,0 M488,500 q24,-28 48,0" fill="none" stroke-width="3"/><path d="M640,420 q12,-14 24,0 M630,400 q24,-28 48,0" fill="none" stroke-width="3"/></g></svg>