<svg xmlns="http://www.w3.org/2000/svg" width="900" height="500" viewBox="0 0 900 500"><defs>
<linearGradient id="metall" x1="0" y1="0" x2="0" y2="1"><stop offset="0" stop-color="#f0f0f0"/><stop offset="0.4" stop-color="#aaa"/><stop offset="1" stop-color="#2a2a2a"/></linearGradient>
<linearGradient id="metallv" x1="0" y1="0" x2="1" y2="0"><stop offset="0" stop-color="#2a2a2a"/><stop offset="0.35" stop-color="#e6e6e6"/><stop offset="0.65" stop-color="#999"/><stop offset="1" stop-color="#222"/></linearGradient>
<radialGradient id="kugel" cx="35%" cy="30%" r="75%"><stop offset="0" stop-color="#fafafa"/><stop offset="0.5" stop-color="#bbb"/><stop offset="1" stop-color="#333"/></radialGradient>
<radialGradient id="dunkel" cx="35%" cy="30%" r="80%"><stop offset="0" stop-color="#999"/><stop offset="0.45" stop-color="#333"/><stop offset="1" stop-color="#000"/></radialGradient>
<linearGradient id="schwarz" x1="0" y1="0" x2="1" y2="0"><stop offset="0" stop-color="#050505"/><stop offset="0.35" stop-color="#666"/><stop offset="0.6" stop-color="#222"/><stop offset="1" stop-color="#000"/></linearGradient>
<linearGradient id="sockel" x1="0" y1="0" x2="0" y2="1"><stop offset="0" stop-color="#888"/><stop offset="0.3" stop-color="#333"/><stop offset="1" stop-color="#0a0a0a"/></linearGradient>
<radialGradient id="zifferblatt" cx="50%" cy="45%" r="60%"><stop offset="0" stop-color="#fff"/><stop offset="0.8" stop-color="#eee"/><stop offset="1" stop-color="#aaa"/></radialGradient>
<linearGradient id="land" x1="0" y1="0" x2="1" y2="1"><stop offset="0" stop-color="#777"/><stop offset="1" stop-color="#1a1a1a"/></linearGradient>
<linearGradient id="holz" x1="0" y1="0" x2="1" y2="0"><stop offset="0" stop-color="#555"/><stop offset="0.4" stop-color="#999"/><stop offset="1" stop-color="#444"/></linearGradient>
<linearGradient id="holzh" x1="0" y1="0" x2="0" y2="1"><stop offset="0" stop-color="#aaa"/><stop offset="1" stop-color="#555"/></linearGradient>
<linearGradient id="papier" x1="0" y1="0" x2="1" y2="1"><stop offset="0" stop-color="#fff"/><stop offset="1" stop-color="#ccc"/></linearGradient>
<linearGradient id="glasv" x1="0" y1="0" x2="1" y2="0"><stop offset="0" stop-color="#999"/><stop offset="0.25" stop-color="#fff"/><stop offset="0.7" stop-color="#ddd"/><stop offset="1" stop-color="#888"/></linearGradient>
<linearGradient id="wolke" x1="0" y1="0" x2="0" y2="1"><stop offset="0" stop-color="#888"/><stop offset="1" stop-color="#222"/></linearGradient>
<linearGradient id="sand" x1="0" y1="0" x2="1" y2="0"><stop offset="0" stop-color="#555"/><stop offset="0.4" stop-color="#999"/><stop offset="1" stop-color="#444"/></linearGradient>
</defs><rect width="900" height="500" fill="#fff"/><g stroke="#000" stroke-width="3" stroke-linejoin="round"><line x1="20" y1="250" x2="150" y2="250" stroke-width="4" stroke-linecap="round"/><line x1="40" y1="290" x2="130" y2="290" stroke-width="4" stroke-linecap="round"/><line x1="10" y1="330" x2="140" y2="330" stroke-width="4" stroke-linecap="round"/><line x1="50" y1="370" x2="150" y2="370" stroke-width="4" stroke-linecap="round"/><path d="M150,330 C150,250 230,215 330,212 L640,215 C740,220 815,262 820,305 C822,335 790,352 740,356 L210,360 C175,360 150,350 150,330 Z" fill="url(#metall)"/><path d="M150,330 C130,322 120,300 160,280 L220,262 C190,290 180,320 190,340 Z" fill="url(#metallv)"/><path d="M780,262 C812,278 828,300 822,320 L800,322 C804,300 795,284 772,272 Z" fill="url(#dunkel)"/><line x1="784" y1="270" x2="790" y2="318" stroke-width="1.5"/><line x1="790" y1="274" x2="795" y2="318" stroke-width="1.5"/><line x1="796" y1="278" x2="800" y2="318" stroke-width="1.5"/><line x1="802" y1="282" x2="805" y2="318" stroke-width="1.5"/><line x1="808" y1="286" x2="810" y2="318" stroke-width="1.5"/><path d="M240,300 L760,300" fill="none" stroke-width="1.5"/><circle cx="430" cy="290" r="38" fill="url(#papier)"/><text x="430" y="305" text-anchor="middle" font-family="DejaVu Sans, sans-serif" font-weight="bold" font-size="40" fill="url(#dunkel)" stroke-width="1.2">73</text><path d="M560,318 C520,345 470,350 380,352" fill="none" stroke-width="7"/><path d="M590,318 C550,345 500,350 410,352" fill="none" stroke-width="7"/><path d="M620,318 C580,345 530,350 440,352" fill="none" stroke-width="7"/><path d="M380,346 L240,350 L238,362 L380,358 Z" fill="url(#metallv)"/><path d="M470,215 C478,198 540,196 552,214 Z" fill="url(#sockel)"/><path d="M556,214 L572,188 L582,190 L568,215 Z" fill="url(#glasv)"/><path d="M486,214 C482,178 530,170 538,200 L540,214 Z" fill="url(#holz)"/><ellipse cx="512" cy="178" rx="24" ry="22" fill="url(#dunkel)"/><ellipse cx="530" cy="181" rx="10" ry="7" fill="url(#glasv)"/><line x1="494" y1="178" x2="520" y2="181" stroke-width="4"/><circle cx="556" cy="206" r="13" fill="none" stroke-width="4"/><circle cx="265" cy="372" r="76" fill="url(#dunkel)"/><circle cx="265" cy="372" r="58" fill="url(#papier)"/><line x1="279" y1="372" x2="322" y2="379" stroke-width="1.5"/><line x1="279" y1="376" x2="318" y2="393" stroke-width="1.5"/><line x1="277" y1="379" x2="311" y2="406" stroke-width="1.5"/><line x1="275" y1="382" x2="300" y2="417" stroke-width="1.5"/><line x1="272" y1="384" x2="287" y2="424" stroke-width="1.5"/><line x1="269" y1="386" x2="273" y2="428" stroke-width="1.5"/><line x1="265" y1="386" x2="258" y2="429" stroke-width="1.5"/><line x1="261" y1="386" x2="244" y2="425" stroke-width="1.5"/><line x1="258" y1="384" x2="231" y2="418" stroke-width="1.5"/><line x1="255" y1="382" x2="220" y2="407" stroke-width="1.5"/><line x1="253" y1="379" x2="213" y2="394" stroke-width="1.5"/><line x1="251" y1="376" x2="209" y2="380" stroke-width="1.5"/><line x1="251" y1="372" x2="208" y2="365" stroke-width="1.5"/><line x1="251" y1="368" x2="212" y2="351" stroke-width="1.5"/><line x1="253" y1="365" x2="219" y2="338" stroke-width="1.5"/><line x1="255" y1="362" x2="230" y2="327" stroke-width="1.5"/><line x1="258" y1="360" x2="243" y2="320" stroke-width="1.5"/><line x1="261" y1="358" x2="257" y2="316" stroke-width="1.5"/><line x1="265" y1="358" x2="272" y2="315" stroke-width="1.5"/><line x1="269" y1="358" x2="286" y2="319" stroke-width="1.5"/><line x1="272" y1="360" x2="299" y2="326" stroke-width="1.5"/><line x1="275" y1="362" x2="310" y2="337" stroke-width="1.5"/><line x1="277" y1="365" x2="317" y2="350" stroke-width="1.5"/><line x1="279" y1="368" x2="321" y2="364" stroke-width="1.5"/><circle cx="265" cy="372" r="20" fill="url(#metall)"/><path d="M259,348 L271,348 L269,338 L261,338 Z M241,368 L231,372 L241,376 Z" fill="url(#metallv)"/><circle cx="690" cy="372" r="76" fill="url(#dunkel)"/><circle cx="690" cy="372" r="58" fill="url(#papier)"/><line x1="704" y1="372" x2="747" y2="379" stroke-width="1.5"/><line x1="704" y1="376" x2="743" y2="393" stroke-width="1.5"/><line x1="702" y1="379" x2="736" y2="406" stroke-width="1.5"/><line x1="700" y1="382" x2="725" y2="417" stroke-width="1.5"/><line x1="697" y1="384" x2="712" y2="424" stroke-width="1.5"/><line x1="694" y1="386" x2="698" y2="428" stroke-width="1.5"/><line x1="690" y1="386" x2="683" y2="429" stroke-width="1.5"/><line x1="686" y1="386" x2="669" y2="425" stroke-width="1.5"/><line x1="683" y1="384" x2="656" y2="418" stroke-width="1.5"/><line x1="680" y1="382" x2="645" y2="407" stroke-width="1.5"/><line x1="678" y1="379" x2="638" y2="394" stroke-width="1.5"/><line x1="676" y1="376" x2="634" y2="380" stroke-width="1.5"/><line x1="676" y1="372" x2="633" y2="365" stroke-width="1.5"/><line x1="676" y1="368" x2="637" y2="351" stroke-width="1.5"/><line x1="678" y1="365" x2="644" y2="338" stroke-width="1.5"/><line x1="680" y1="362" x2="655" y2="327" stroke-width="1.5"/><line x1="683" y1="360" x2="668" y2="320" stroke-width="1.5"/><line x1="686" y1="358" x2="682" y2="316" stroke-width="1.5"/><line x1="690" y1="358" x2="697" y2="315" stroke-width="1.5"/><line x1="694" y1="358" x2="711" y2="319" stroke-width="1.5"/><line x1="697" y1="360" x2="724" y2="326" stroke-width="1.5"/><line x1="700" y1="362" x2="735" y2="337" stroke-width="1.5"/><line x1="702" y1="365" x2="742" y2="350" stroke-width="1.5"/><line x1="704" y1="368" x2="746" y2="364" stroke-width="1.5"/><circle cx="690" cy="372" r="20" fill="url(#metall)"/><path d="M684,348 L696,348 L694,338 L686,338 Z M666,368 L656,372 L666,376 Z" fill="url(#metallv)"/><path d="M140,450 L860,450" fill="none" stroke-width="3"/><line x1="60" y1="440" x2="120" y2="440" stroke-width="3" stroke-linecap="round"/><line x1="100" y1="440" x2="160" y2="440" stroke-width="3" stroke-linecap="round"/></g></svg>