<svg xmlns="http://www.w3.org/2000/svg" width="800" height="760" viewBox="0 0 800 760"><defs>
<linearGradient id="metall" x1="0" y1="0" x2="0" y2="1"><stop offset="0" stop-color="#f0f0f0"/><stop offset="0.4" stop-color="#aaa"/><stop offset="1" stop-color="#2a2a2a"/></linearGradient>
<linearGradient id="metallv" x1="0" y1="0" x2="1" y2="0"><stop offset="0" stop-color="#2a2a2a"/><stop offset="0.35" stop-color="#e6e6e6"/><stop offset="0.65" stop-color="#999"/><stop offset="1" stop-color="#222"/></linearGradient>
<radialGradient id="kugel" cx="35%" cy="30%" r="75%"><stop offset="0" stop-color="#fafafa"/><stop offset="0.5" stop-color="#bbb"/><stop offset="1" stop-color="#333"/></radialGradient>
<radialGradient id="dunkel" cx="35%" cy="30%" r="80%"><stop offset="0" stop-color="#999"/><stop offset="0.45" stop-color="#333"/><stop offset="1" stop-color="#000"/></radialGradient>
<linearGradient id="schwarz" x1="0" y1="0" x2="1" y2="0"><stop offset="0" stop-color="#050505"/><stop offset="0.35" stop-color="#666"/><stop offset="0.6" stop-color="#222"/><stop offset="1" stop-color="#000"/></linearGradient>
<linearGradient id="sockel" x1="0" y1="0" x2="0" y2="1"><stop offset="0" stop-color="#888"/><stop offset="0.3" stop-color="#333"/><stop offset="1" stop-color="#0a0a0a"/></linearGradient>
<radialGradient id="zifferblatt" cx="50%" cy="45%" r="60%"><stop offset="0" stop-color="#fff"/><stop offset="0.8" stop-color="#eee"/><stop offset="1" stop-color="#aaa"/></radialGradient>
<linearGradient id="land" x1="0" y1="0" x2="1" y2="1"><stop offset="0" stop-color="#777"/><stop offset="1" stop-color="#1a1a1a"/></linearGradient>
</defs><rect width="800" height="760" fill="#fff"/><g stroke="#000" stroke-width="3" stroke-linejoin="round"><rect x="372" y="120" width="56" height="60" rx="6" fill="url(#metallv)"/><rect x="352" y="96" width="96" height="30" rx="10" fill="url(#metallv)"/><path d="M386,180 L414,180 L418,222 L382,222 Z" fill="url(#metall)"/><g transform="rotate(42 400 470)"><rect x="388" y="186" width="24" height="40" rx="4" fill="url(#metallv)"/><rect x="380" y="172" width="40" height="18" rx="5" fill="url(#metallv)"/></g><circle cx="400" cy="470" r="250" fill="url(#kugel)"/><circle cx="400" cy="470" r="224" fill="url(#zifferblatt)"/><line x1="400" y1="254" x2="400" y2="290" stroke-width="5"/><line x1="423" y1="255" x2="421" y2="271" stroke-width="2"/><line x1="445" y1="259" x2="442" y2="274" stroke-width="2"/><line x1="467" y1="265" x2="462" y2="280" stroke-width="2"/><line x1="488" y1="273" x2="481" y2="287" stroke-width="2"/><line x1="508" y1="283" x2="490" y2="314" stroke-width="5"/><line x1="527" y1="295" x2="518" y2="308" stroke-width="2"/><line x1="545" y1="309" x2="534" y2="321" stroke-width="2"/><line x1="561" y1="325" x2="549" y2="336" stroke-width="2"/><line x1="575" y1="343" x2="562" y2="352" stroke-width="2"/><line x1="587" y1="362" x2="556" y2="380" stroke-width="5"/><line x1="597" y1="382" x2="583" y2="389" stroke-width="2"/><line x1="605" y1="403" x2="590" y2="408" stroke-width="2"/><line x1="611" y1="425" x2="596" y2="428" stroke-width="2"/><line x1="615" y1="447" x2="599" y2="449" stroke-width="2"/><line x1="616" y1="470" x2="580" y2="470" stroke-width="5"/><line x1="615" y1="493" x2="599" y2="491" stroke-width="2"/><line x1="611" y1="515" x2="596" y2="512" stroke-width="2"/><line x1="605" y1="537" x2="590" y2="532" stroke-width="2"/><line x1="597" y1="558" x2="583" y2="551" stroke-width="2"/><line x1="587" y1="578" x2="556" y2="560" stroke-width="5"/><line x1="575" y1="597" x2="562" y2="588" stroke-width="2"/><line x1="561" y1="615" x2="549" y2="604" stroke-width="2"/><line x1="545" y1="631" x2="534" y2="619" stroke-width="2"/><line x1="527" y1="645" x2="518" y2="632" stroke-width="2"/><line x1="508" y1="657" x2="490" y2="626" stroke-width="5"/><line x1="488" y1="667" x2="481" y2="653" stroke-width="2"/><line x1="467" y1="675" x2="462" y2="660" stroke-width="2"/><line x1="445" y1="681" x2="442" y2="666" stroke-width="2"/><line x1="423" y1="685" x2="421" y2="669" stroke-width="2"/><line x1="400" y1="686" x2="400" y2="650" stroke-width="5"/><line x1="377" y1="685" x2="379" y2="669" stroke-width="2"/><line x1="355" y1="681" x2="358" y2="666" stroke-width="2"/><line x1="333" y1="675" x2="338" y2="660" stroke-width="2"/><line x1="312" y1="667" x2="319" y2="653" stroke-width="2"/><line x1="292" y1="657" x2="310" y2="626" stroke-width="5"/><line x1="273" y1="645" x2="282" y2="632" stroke-width="2"/><line x1="255" y1="631" x2="266" y2="619" stroke-width="2"/><line x1="239" y1="615" x2="251" y2="604" stroke-width="2"/><line x1="225" y1="597" x2="238" y2="588" stroke-width="2"/><line x1="213" y1="578" x2="244" y2="560" stroke-width="5"/><line x1="203" y1="558" x2="217" y2="551" stroke-width="2"/><line x1="195" y1="537" x2="210" y2="532" stroke-width="2"/><line x1="189" y1="515" x2="204" y2="512" stroke-width="2"/><line x1="185" y1="493" x2="201" y2="491" stroke-width="2"/><line x1="184" y1="470" x2="220" y2="470" stroke-width="5"/><line x1="185" y1="447" x2="201" y2="449" stroke-width="2"/><line x1="189" y1="425" x2="204" y2="428" stroke-width="2"/><line x1="195" y1="403" x2="210" y2="408" stroke-width="2"/><line x1="203" y1="382" x2="217" y2="389" stroke-width="2"/><line x1="213" y1="362" x2="244" y2="380" stroke-width="5"/><line x1="225" y1="343" x2="238" y2="352" stroke-width="2"/><line x1="239" y1="325" x2="251" y2="336" stroke-width="2"/><line x1="255" y1="309" x2="266" y2="321" stroke-width="2"/><line x1="273" y1="295" x2="282" y2="308" stroke-width="2"/><line x1="292" y1="283" x2="310" y2="314" stroke-width="5"/><line x1="312" y1="273" x2="319" y2="287" stroke-width="2"/><line x1="333" y1="265" x2="338" y2="280" stroke-width="2"/><line x1="355" y1="259" x2="358" y2="274" stroke-width="2"/><line x1="377" y1="255" x2="379" y2="271" stroke-width="2"/><circle cx="400" cy="550" r="46" fill="none" stroke-width="2"/><line x1="400" y1="550" x2="424" y2="528" stroke-width="4"/><path d="M393,500 L407,500 L402,280 L398,280 Z" fill="url(#schwarz)" transform="rotate(38 400 470)"/><circle cx="400" cy="470" r="14" fill="url(#dunkel)"/></g></svg>