<svg xmlns="http://www.w3.org/2000/svg" width="800" height="760" viewBox="0 0 800 760"><defs>
<linearGradient id="blatt" x1="0" y1="0" x2="1" y2="1"><stop offset="0" stop-color="#fff"/><stop offset="0.7" stop-color="#e4e4e4"/><stop offset="1" stop-color="#9a9a9a"/></linearGradient>
<linearGradient id="blatt2" x1="0" y1="0" x2="1" y2="1"><stop offset="0" stop-color="#cfcfcf"/><stop offset="1" stop-color="#5a5a5a"/></linearGradient>
<linearGradient id="kopf" x1="0" y1="0" x2="0" y2="1"><stop offset="0" stop-color="#777"/><stop offset="0.5" stop-color="#333"/><stop offset="1" stop-color="#111"/></linearGradient>
<linearGradient id="ring" x1="0" y1="0" x2="1" y2="0"><stop offset="0" stop-color="#222"/><stop offset="0.4" stop-color="#eee"/><stop offset="0.7" stop-color="#888"/><stop offset="1" stop-color="#222"/></linearGradient>
<radialGradient id="stern" cx="40%" cy="35%" r="70%"><stop offset="0" stop-color="#fff"/><stop offset="0.5" stop-color="#999"/><stop offset="1" stop-color="#222"/></radialGradient>
<radialGradient id="grossstern" cx="38%" cy="32%" r="75%"><stop offset="0" stop-color="#fafafa"/><stop offset="0.45" stop-color="#aaa"/><stop offset="1" stop-color="#1a1a1a"/></radialGradient>
<linearGradient id="feld" x1="0" y1="0" x2="0" y2="1"><stop offset="0" stop-color="#fff"/><stop offset="1" stop-color="#d6d6d6"/></linearGradient>
</defs><rect width="800" height="760" fill="#fff"/><g stroke="#000" stroke-width="3" stroke-linejoin="round"><path d="M150,190 L650,190 L662,640 L162,650 Z" fill="url(#blatt2)"/><rect x="130" y="170" width="520" height="460" rx="6" fill="url(#blatt)"/><rect x="130" y="170" width="520" height="80" rx="6" fill="url(#kopf)"/><rect x="170" y="140" width="14" height="56" rx="7" fill="url(#ring)"/><circle cx="177" cy="200" r="7" fill="#111"/><rect x="225" y="140" width="14" height="56" rx="7" fill="url(#ring)"/><circle cx="232" cy="200" r="7" fill="#111"/><rect x="280" y="140" width="14" height="56" rx="7" fill="url(#ring)"/><circle cx="287" cy="200" r="7" fill="#111"/><rect x="335" y="140" width="14" height="56" rx="7" fill="url(#ring)"/><circle cx="342" cy="200" r="7" fill="#111"/><rect x="390" y="140" width="14" height="56" rx="7" fill="url(#ring)"/><circle cx="397" cy="200" r="7" fill="#111"/><rect x="445" y="140" width="14" height="56" rx="7" fill="url(#ring)"/><circle cx="452" cy="200" r="7" fill="#111"/><rect x="500" y="140" width="14" height="56" rx="7" fill="url(#ring)"/><circle cx="507" cy="200" r="7" fill="#111"/><rect x="555" y="140" width="14" height="56" rx="7" fill="url(#ring)"/><circle cx="562" cy="200" r="7" fill="#111"/><rect x="610" y="140" width="14" height="56" rx="7" fill="url(#ring)"/><circle cx="617" cy="200" r="7" fill="#111"/><rect x="152" y="290" width="66" height="120" fill="url(#feld)" stroke-width="2"/><rect x="222" y="290" width="66" height="120" fill="url(#feld)" stroke-width="2"/><rect x="292" y="290" width="66" height="120" fill="url(#feld)" stroke-width="2"/><rect x="362" y="290" width="66" height="120" fill="url(#feld)" stroke-width="2"/><rect x="432" y="290" width="66" height="120" fill="url(#feld)" stroke-width="2"/><rect x="502" y="290" width="66" height="120" fill="url(#feld)" stroke-width="2"/><rect x="572" y="290" width="66" height="120" fill="url(#feld)" stroke-width="2"/><polygon points="185.0,299.0 188.7,308.9 199.3,309.4 191.0,315.9 193.8,326.1 185.0,320.3 176.2,326.1 179.0,315.9 170.7,309.4 181.3,308.9" fill="url(#stern)" stroke-width="2.5"/><polygon points="185.0,335.0 188.7,344.9 199.3,345.4 191.0,351.9 193.8,362.1 185.0,356.3 176.2,362.1 179.0,351.9 170.7,345.4 181.3,344.9" fill="url(#stern)" stroke-width="2.5"/><polygon points="185.0,371.0 188.7,380.9 199.3,381.4 191.0,387.9 193.8,398.1 185.0,392.3 176.2,398.1 179.0,387.9 170.7,381.4 181.3,380.9" fill="url(#stern)" stroke-width="2.5"/><polygon points="255.0,299.0 258.7,308.9 269.3,309.4 261.0,315.9 263.8,326.1 255.0,320.3 246.2,326.1 249.0,315.9 240.7,309.4 251.3,308.9" fill="url(#stern)" stroke-width="2.5"/><polygon points="255.0,335.0 258.7,344.9 269.3,345.4 261.0,351.9 263.8,362.1 255.0,356.3 246.2,362.1 249.0,351.9 240.7,345.4 251.3,344.9" fill="url(#stern)" stroke-width="2.5"/><line x1="311.0" y1="350" x2="339.0" y2="350" stroke-width="3"/><polygon points="395.0,299.0 398.7,308.9 409.3,309.4 401.0,315.9 403.8,326.1 395.0,320.3 386.2,326.1 389.0,315.9 380.7,309.4 391.3,308.9" fill="url(#stern)" stroke-width="2.5"/><polygon points="395.0,335.0 398.7,344.9 409.3,345.4 401.0,351.9 403.8,362.1 395.0,356.3 386.2,362.1 389.0,351.9 380.7,345.4 391.3,344.9" fill="url(#stern)" stroke-width="2.5"/><polygon points="395.0,371.0 398.7,380.9 409.3,381.4 401.0,387.9 403.8,398.1 395.0,392.3 386.2,398.1 389.0,387.9 380.7,381.4 391.3,380.9" fill="url(#stern)" stroke-width="2.5"/><polygon points="465.0,299.0 468.7,308.9 479.3,309.4 471.0,315.9 473.8,326.1 465.0,320.3 456.2,326.1 459.0,315.9 450.7,309.4 461.3,308.9" fill="url(#stern)" stroke-width="2.5"/><polygon points="535.0,299.0 538.7,308.9 549.3,309.4 541.0,315.9 543.8,326.1 535.0,320.3 526.2,326.1 529.0,315.9 520.7,309.4 531.3,308.9" fill="url(#stern)" stroke-width="2.5"/><polygon points="535.0,335.0 538.7,344.9 549.3,345.4 541.0,351.9 543.8,362.1 535.0,356.3 526.2,362.1 529.0,351.9 520.7,345.4 531.3,344.9" fill="url(#stern)" stroke-width="2.5"/><polygon points="535.0,371.0 538.7,380.9 549.3,381.4 541.0,387.9 543.8,398.1 535.0,392.3 526.2,398.1 529.0,387.9 520.7,381.4 531.3,380.9" fill="url(#stern)" stroke-width="2.5"/><line x1="591.0" y1="350" x2="619.0" y2="350" stroke-width="3"/><path d="M352,560 L318,668 L346,654 L366,684 L392,576 Z" fill="url(#kopf)"/><path d="M448,560 L482,668 L454,654 L434,684 L408,576 Z" fill="url(#kopf)"/><polygon points="400.0,445.0 423.5,507.6 490.4,510.6 438.0,552.4 455.8,616.9 400.0,580.0 344.2,616.9 362.0,552.4 309.6,510.6 376.5,507.6" fill="url(#grossstern)" stroke-width="3"/></g></svg>